<svg id="background" xmlns="http://www.w3.org/2000/svg" viewBox="0 0 500 400"><defs><style>.cls-1{fill:#016bb2;stroke:#fff;stroke-width:2px;}.cls-1,.cls-2{stroke-miterlimit:10;}.cls-2{fill:none;stroke:#1d1d1b;}.cls-3{fill:#fff;}</style></defs><title>carbon-cleaning-icon</title><rect class="cls-1" width="500" height="400"/><line class="cls-2" x1="168.42" y1="178.03" x2="164.84" y2="178.03"/><line class="cls-2" x1="376" y1="178.03" x2="372.42" y2="178.03"/><path class="cls-3" d="M139,306a1.76,1.76,0,0,1-1.66,1.33h-9.9a1,1,0,0,1-1-1.33l0.5-2.41c0.29-1.4-.47-2.56-1.73-2.56a3.15,3.15,0,0,0-2.77,2.56l-2.16,10.22a1.85,1.85,0,0,0,1.69,2.52,3.15,3.15,0,0,0,2.81-2.52l0.5-2.41a1.76,1.76,0,0,1,1.62-1.37h9.9a1.08,1.08,0,0,1,1.08,1.37l-1,4.5c-0.4,2-3,3.6-5.65,3.6H111.3c-2.7,0-4.54-1.62-4.14-3.6l3.06-14.4c0.43-2,3-3.6,5.65-3.6h19.94c2.7,0,4.54,1.62,4.1,3.6Z"/><path class="cls-3" d="M165.66,316.65a9,9,0,0,1-6,2.84H156.3a3.71,3.71,0,0,1-3-1.22c-0.4.29-.79,0.58-1,0.68a5.89,5.89,0,0,1-2.52.58h-7.23c-2.16,0-3.64-1.26-3.31-2.88l2.45-11.52c0.32-1.58,2.38-2.88,4.54-2.88h7.23a3.87,3.87,0,0,1,2.59.86l1-.86H165a0.86,0.86,0,0,1,.86,1.08l-2.45,11.52a1.07,1.07,0,0,0,1.08,1.37,1.74,1.74,0,0,0,1.37-.72Zm-12-11.88a2.55,2.55,0,0,0-2.23,2.05L149.75,315a1.49,1.49,0,0,0,1.37,2,2.39,2.39,0,0,0,2.2-1.94l1.76-8.24A1.52,1.52,0,0,0,153.71,304.77Z"/><path class="cls-3" d="M192.52,306.78a8.83,8.83,0,0,1-6,2.88h-1.73c-2.16,0-3.64-1.3-3.31-2.88a1.51,1.51,0,0,0-1.37-2.05,2.5,2.5,0,0,0-2.23,2.05l-2.48,11.63a1.34,1.34,0,0,1-1.3,1.08h-7.92a0.85,0.85,0,0,1-.86-1.08l3.24-15.12a1.34,1.34,0,0,1,1.3-1.08h7.92l0.65,0.83a5.76,5.76,0,0,1,3-.83H187c2.16,0,3.64,1.3,3.31,2.88a1,1,0,0,0,1.12,1.26,1.8,1.8,0,0,0,1.33-.68Z"/><path class="cls-3" d="M216.67,316.65a9,9,0,0,1-6,2.84h-17c-2.16,0-3.64-1.3-3.31-2.88,0.25-1.22-.43,2.05,3.74-17.64a1.42,1.42,0,0,1,1.33-1.08h7.92a0.83,0.83,0,0,1,.83,1.08l-0.83,3.92a5.42,5.42,0,0,1,2.66-.68h7.24c2.16,0,3.64,1.3,3.31,2.88l-2.05,9.72a1.09,1.09,0,0,0,1.08,1.4,1.74,1.74,0,0,0,1.37-.72Zm-12-11.92a2.5,2.5,0,0,0-2.23,2.05L200.33,317h1.8a2.5,2.5,0,0,0,2.23-2.05l1.73-8.14A1.51,1.51,0,0,0,204.72,304.73Z"/><path class="cls-3" d="M245,306.93a10.52,10.52,0,0,1-3.06,2.16l-1.62,7.52c-0.32,1.58-2.38,2.88-4.54,2.88H219.88c-2.16,0-3.64-1.3-3.31-2.88L219,305.09c0.32-1.58,2.38-2.88,4.54-2.88h15.91c2.16,0,3.64,1.3,3.31,2.88a1.11,1.11,0,0,0,1.08,1.4,1.74,1.74,0,0,0,1.37-.72Zm-14-2.2a2.5,2.5,0,0,0-2.23,2.05L227,314.92a1.51,1.51,0,0,0,1.37,2.05,2.5,2.5,0,0,0,2.23-2.05l1.73-8.14A1.51,1.51,0,0,0,231,304.73Z"/><path class="cls-3" d="M269.23,316.65a9,9,0,0,1-6,2.84h-3.35c-2.16,0-3.64-1.3-3.31-2.88l2.09-9.83a1.51,1.51,0,0,0-1.37-2.05,2.5,2.5,0,0,0-2.23,2.05l-2.48,11.63a1.34,1.34,0,0,1-1.3,1.08h-7.92a0.85,0.85,0,0,1-.86-1.08l3.24-15.12a1.34,1.34,0,0,1,1.3-1.08h7.92l0.65,0.83a5.76,5.76,0,0,1,3-.83h7.24c2.16,0,3.64,1.3,3.31,2.88L267,314.81a1.09,1.09,0,0,0,1.08,1.4,1.74,1.74,0,0,0,1.37-.72Z"/><path class="cls-3" d="M310.92,306a1.76,1.76,0,0,1-1.66,1.33h-9.9a1,1,0,0,1-1-1.33l0.5-2.41c0.29-1.4-.47-2.56-1.73-2.56a3.15,3.15,0,0,0-2.77,2.56l-2.16,10.22a1.85,1.85,0,0,0,1.69,2.52,3.15,3.15,0,0,0,2.81-2.52l0.5-2.41a1.75,1.75,0,0,1,1.62-1.37h9.9a1.08,1.08,0,0,1,1.08,1.37l-1,4.5c-0.4,2-3,3.6-5.65,3.6H283.24c-2.7,0-4.54-1.62-4.14-3.6l3.06-14.4c0.43-2,3-3.6,5.65-3.6h19.94c2.7,0,4.54,1.62,4.1,3.6Z"/><path class="cls-3" d="M321.72,314.81a1.1,1.1,0,0,0,1.08,1.4,1.74,1.74,0,0,0,1.37-.72l-0.25,1.15a9,9,0,0,1-6,2.84h-3.35c-2.16,0-3.64-1.3-3.31-2.88L315,299a1.42,1.42,0,0,1,1.33-1.08h7.92a0.83,0.83,0,0,1,.83,1.08Z"/><path class="cls-3" d="M350.38,316.11a1.07,1.07,0,0,0-1.08-.72,1.63,1.63,0,0,0-1.62,1.26c-0.36,1.58-2.38,2.84-4.54,2.84H327.23c-2.16,0-3.64-1.3-3.31-2.88l2.45-11.52c0.32-1.58,2.38-2.88,4.54-2.88h15.91c2.16,0,3.64,1.3,3.31,2.88l-0.72,3.42c-0.36,1.58-2.38,2.88-4.54,2.88h-9.75l-0.76,3.53a1.51,1.51,0,0,0,1.37,2.05,2.5,2.5,0,0,0,2.23-2c0.32-1.58,2.3-2,4.46-2h3.31c2.23,0,4,.32,4.86,2Zm-12.06-11.37a2.5,2.5,0,0,0-2.23,2.05l-0.5,2.45h3.6l0.5-2.45A1.51,1.51,0,0,0,338.32,304.73Z"/><path class="cls-3" d="M376.55,316.65a9,9,0,0,1-6,2.84h-3.35a3.71,3.71,0,0,1-3-1.22c-0.4.29-.79,0.58-1,0.68a5.89,5.89,0,0,1-2.52.58h-7.24c-2.16,0-3.64-1.26-3.31-2.88l2.45-11.52c0.32-1.58,2.38-2.88,4.54-2.88h7.24a3.87,3.87,0,0,1,2.59.86l1-.86h7.92a0.86,0.86,0,0,1,.86,1.08l-2.45,11.52a1.07,1.07,0,0,0,1.08,1.37,1.74,1.74,0,0,0,1.37-.72Zm-12-11.88a2.54,2.54,0,0,0-2.23,2.05L360.64,315a1.5,1.5,0,0,0,1.37,2,2.39,2.39,0,0,0,2.2-1.94l1.76-8.24A1.52,1.52,0,0,0,364.6,304.77Z"/><path class="cls-3" d="M402.9,316.65a9,9,0,0,1-6,2.84h-3.35c-2.16,0-3.63-1.3-3.31-2.88l2.09-9.83a1.51,1.51,0,0,0-1.37-2.05,2.5,2.5,0,0,0-2.23,2.05l-2.48,11.63a1.34,1.34,0,0,1-1.3,1.08H377a0.85,0.85,0,0,1-.86-1.08l3.24-15.12a1.34,1.34,0,0,1,1.3-1.08h7.92l0.65,0.83a5.76,5.76,0,0,1,3-.83h7.23c2.16,0,3.64,1.3,3.31,2.88l-2.05,9.72a1.1,1.1,0,0,0,1.08,1.4,1.74,1.74,0,0,0,1.37-.72Z"/><path class="cls-3" d="M415.57,316.65a9,9,0,0,1-6,2.84h-3.35c-2.16,0-3.64-1.3-3.31-2.88l2.84-13.32a1.34,1.34,0,0,1,1.3-1.08H415a0.85,0.85,0,0,1,.86,1.08l-2.45,11.52a1.1,1.1,0,0,0,1.08,1.4,1.74,1.74,0,0,0,1.37-.72Zm0.94-16.56a1.46,1.46,0,0,1-1.33,1.08h-7.92a0.84,0.84,0,0,1-.83-1.08l0.22-1.08a1.41,1.41,0,0,1,1.3-1.08h7.92a0.84,0.84,0,0,1,.86,1.08Z"/><path class="cls-3" d="M441.92,316.65a9,9,0,0,1-6,2.84h-3.35c-2.16,0-3.63-1.3-3.31-2.88l2.09-9.83a1.51,1.51,0,0,0-1.37-2.05,2.5,2.5,0,0,0-2.23,2.05l-2.48,11.63a1.34,1.34,0,0,1-1.3,1.08H416a0.85,0.85,0,0,1-.86-1.08l3.24-15.12a1.34,1.34,0,0,1,1.3-1.08h7.92l0.65,0.83a5.76,5.76,0,0,1,3-.83h7.23c2.16,0,3.64,1.3,3.31,2.88l-2.05,9.72a1.1,1.1,0,0,0,1.08,1.4,1.74,1.74,0,0,0,1.37-.72Z"/><path class="cls-3" d="M470.51,306.21a1.09,1.09,0,0,0-1.08-.68,1.84,1.84,0,0,0-1.69,1.37c-1.62,7.59-1,4.68-3.31,15.55-0.4,1.94-2.84,2.88-4.5,2.88H444c-1.66,0-3.71-.94-3.31-2.88l0.25-1.08a1.42,1.42,0,0,1,1.3-1.08h7.92a0.86,0.86,0,0,1,.86,1.08,1.52,1.52,0,0,0,1.37,2.05,2.52,2.52,0,0,0,2.23-2.05l0.79-3.67H445.6c-1.62,0-3.71-.94-3.28-2.88l2.05-9.72c0.29-1.4,2.34-2.88,4.54-2.88h7.24a4.06,4.06,0,0,1,2.59.83l0.4,0.4a5.51,5.51,0,0,1,3.46-1.22h3.35a5.27,5.27,0,0,1,4.79,2.88Zm-14.18-1.48a2.55,2.55,0,0,0-2.23,2.05l-1.51,7.06a1.53,1.53,0,0,0,1.37,2.05h1.8l1.94-9.11A1.51,1.51,0,0,0,456.32,304.73Z"/></svg>