<svg id="background" xmlns="http://www.w3.org/2000/svg" viewBox="0 0 500 400"><defs><style>.cls-1{fill:#016bb2;stroke:#fff;stroke-width:2px;}.cls-1,.cls-5{stroke-miterlimit:10;}.cls-2{fill:#fff;}.cls-3{fill:#f4941a;}.cls-4{fill:#1d1d1b;}.cls-5{fill:none;stroke:#1d1d1b;}</style></defs><title>carbon-cleaning-icon</title><rect class="cls-1" width="500" height="400"/><path class="cls-2" d="M306.37,48.71c-29.07,0-59.19,18.21-75.22,55.86-16.6-38.75-46.31-57-74.9-57h0c-38.19,0-74.41,32.63-74.82,92.7-0.4,57.69,52.49,79.25,87.7,102.32,34.15,22.36,58.46,53,62.26,66,3.27-12.76,30.33-44.23,61.94-66.61,34.56-24.48,88.11-44.63,87.71-102.33C380.61,79.91,344.4,48.71,306.37,48.71Zm-130,182.78c-5.54-3.63-11.28-7.09-17.37-10.76-31.78-19.16-64.65-39-64.36-80.41,0.38-54.67,32.2-79.57,61.6-79.57h0c17.81,0,34.38,8.52,47.29,23.66L206.46,178h24.77l-24.15,77.6A233.28,233.28,0,0,0,176.36,231.49ZM307,217.29c-7.51,4.67-14.61,9.08-21.32,13.84-20.91,14.82-41.34,34.53-54.18,51.3a204.78,204.78,0,0,0-24-26.44L262,169H246.11L293.68,63.32a58.79,58.79,0,0,1,12.69-1.39A55.77,55.77,0,0,1,348,80.66c12.78,14.07,19.62,34.48,19.79,59C368.08,179.3,338.41,197.75,307,217.29Z"/><path class="cls-3" d="M307,217.29c-7.51,4.67-14.61,9.08-21.32,13.84-20.91,14.82-41.34,34.53-54.18,51.3a204.78,204.78,0,0,0-24-26.44L262,169H246.11L293.68,63.32a58.79,58.79,0,0,1,12.69-1.39A55.77,55.77,0,0,1,348,80.66c12.78,14.07,19.62,34.48,19.79,59C368.08,179.3,338.41,197.75,307,217.29Z"/><path class="cls-4" d="M176.36,231.49c-5.54-3.63-11.28-7.09-17.37-10.76-31.78-19.16-64.65-39-64.36-80.41,0.38-54.67,32.2-79.57,61.6-79.57h0c17.81,0,34.38,8.52,47.29,23.66L206.46,178h24.77l-24.15,77.6A233.28,233.28,0,0,0,176.36,231.49Z"/><line class="cls-5" x1="168.42" y1="178.03" x2="164.84" y2="178.03"/><line class="cls-5" x1="376" y1="178.03" x2="372.42" y2="178.03"/><path class="cls-2" d="M137,305.67a1.76,1.76,0,0,1-1.66,1.33h-9.9a1,1,0,0,1-1-1.33l0.5-2.41c0.29-1.4-.47-2.56-1.73-2.56a3.15,3.15,0,0,0-2.77,2.56l-2.16,10.22a1.85,1.85,0,0,0,1.69,2.52,3.15,3.15,0,0,0,2.81-2.52l0.5-2.41a1.76,1.76,0,0,1,1.62-1.37h9.9a1.08,1.08,0,0,1,1.08,1.37l-1,4.5c-0.4,2-3,3.6-5.65,3.6H109.33c-2.7,0-4.54-1.62-4.14-3.6l3.06-14.4c0.43-2,3-3.6,5.65-3.6h19.94c2.7,0,4.54,1.62,4.1,3.6Z"/><path class="cls-2" d="M163.69,316.33a9,9,0,0,1-6,2.84h-3.35a3.71,3.71,0,0,1-3-1.22c-0.4.29-.79,0.58-1,0.68a5.89,5.89,0,0,1-2.52.58h-7.23c-2.16,0-3.64-1.26-3.31-2.88l2.45-11.52c0.32-1.58,2.38-2.88,4.54-2.88h7.23a3.87,3.87,0,0,1,2.59.86l1-.86h7.92a0.86,0.86,0,0,1,.86,1.08l-2.45,11.52a1.07,1.07,0,0,0,1.08,1.37,1.74,1.74,0,0,0,1.37-.72Zm-12-11.88a2.55,2.55,0,0,0-2.23,2.05l-1.73,8.17a1.49,1.49,0,0,0,1.37,2,2.39,2.39,0,0,0,2.2-1.94l1.76-8.24A1.52,1.52,0,0,0,151.74,304.45Z"/><path class="cls-2" d="M190.54,306.47a8.83,8.83,0,0,1-6,2.88h-1.73c-2.16,0-3.64-1.3-3.31-2.88a1.51,1.51,0,0,0-1.37-2.05,2.5,2.5,0,0,0-2.23,2.05l-2.48,11.63a1.34,1.34,0,0,1-1.3,1.08h-7.92a0.85,0.85,0,0,1-.86-1.08L166.53,303a1.34,1.34,0,0,1,1.3-1.08h7.92l0.65,0.83a5.76,5.76,0,0,1,3-.83H185c2.16,0,3.64,1.3,3.31,2.88a1,1,0,0,0,1.12,1.26,1.8,1.8,0,0,0,1.33-.68Z"/><path class="cls-2" d="M214.7,316.33a9,9,0,0,1-6,2.84h-17c-2.16,0-3.64-1.3-3.31-2.88,0.25-1.22-.43,2.05,3.74-17.64a1.42,1.42,0,0,1,1.33-1.08h7.92a0.83,0.83,0,0,1,.83,1.08l-0.83,3.92a5.42,5.42,0,0,1,2.66-.68h7.24c2.16,0,3.64,1.3,3.31,2.88l-2.05,9.72a1.09,1.09,0,0,0,1.08,1.4,1.74,1.74,0,0,0,1.37-.72Zm-12-11.92a2.5,2.5,0,0,0-2.23,2.05l-2.16,10.19h1.8a2.5,2.5,0,0,0,2.23-2.05l1.73-8.14A1.51,1.51,0,0,0,202.75,304.42Z"/><path class="cls-2" d="M243,306.61a10.52,10.52,0,0,1-3.06,2.16l-1.62,7.52c-0.32,1.58-2.38,2.88-4.54,2.88H217.91c-2.16,0-3.64-1.3-3.31-2.88L217,304.78c0.32-1.58,2.38-2.88,4.54-2.88h15.91c2.16,0,3.64,1.3,3.31,2.88a1.11,1.11,0,0,0,1.08,1.4,1.74,1.74,0,0,0,1.37-.72Zm-14-2.2a2.5,2.5,0,0,0-2.23,2.05L225,314.6a1.51,1.51,0,0,0,1.37,2.05,2.5,2.5,0,0,0,2.23-2.05l1.73-8.14A1.51,1.51,0,0,0,229,304.42Z"/><path class="cls-2" d="M267.26,316.33a9,9,0,0,1-6,2.84H257.9c-2.16,0-3.64-1.3-3.31-2.88l2.09-9.83a1.51,1.51,0,0,0-1.37-2.05,2.5,2.5,0,0,0-2.23,2.05l-2.48,11.63a1.34,1.34,0,0,1-1.3,1.08h-7.92a0.85,0.85,0,0,1-.86-1.08L243.75,303a1.34,1.34,0,0,1,1.3-1.08H253l0.65,0.83a5.76,5.76,0,0,1,3-.83h7.24c2.16,0,3.63,1.3,3.31,2.88l-2.05,9.72a1.09,1.09,0,0,0,1.08,1.4,1.74,1.74,0,0,0,1.37-.72Z"/><path class="cls-2" d="M308.95,305.67a1.76,1.76,0,0,1-1.66,1.33h-9.9a1,1,0,0,1-1-1.33l0.5-2.41c0.29-1.4-.47-2.56-1.73-2.56a3.15,3.15,0,0,0-2.77,2.56l-2.16,10.22a1.85,1.85,0,0,0,1.69,2.52,3.15,3.15,0,0,0,2.81-2.52l0.5-2.41a1.75,1.75,0,0,1,1.62-1.37h9.9a1.08,1.08,0,0,1,1.08,1.37l-1,4.5c-0.4,2-3,3.6-5.65,3.6H281.27c-2.7,0-4.54-1.62-4.14-3.6l3.06-14.4c0.43-2,3-3.6,5.65-3.6h19.94c2.7,0,4.54,1.62,4.1,3.6Z"/><path class="cls-2" d="M319.75,314.49a1.1,1.1,0,0,0,1.08,1.4,1.74,1.74,0,0,0,1.37-.72l-0.25,1.15a9,9,0,0,1-6,2.84h-3.35c-2.16,0-3.64-1.3-3.31-2.88L313,298.66a1.42,1.42,0,0,1,1.33-1.08h7.92a0.83,0.83,0,0,1,.83,1.08Z"/><path class="cls-2" d="M348.4,315.79a1.07,1.07,0,0,0-1.08-.72,1.63,1.63,0,0,0-1.62,1.26c-0.36,1.58-2.38,2.84-4.54,2.84H325.26c-2.16,0-3.64-1.3-3.31-2.88l2.45-11.52c0.32-1.58,2.38-2.88,4.54-2.88h15.91c2.16,0,3.64,1.3,3.31,2.88l-0.72,3.42c-0.36,1.58-2.38,2.88-4.54,2.88h-9.75l-0.76,3.53a1.51,1.51,0,0,0,1.37,2.05,2.5,2.5,0,0,0,2.23-2c0.32-1.58,2.3-2,4.46-2h3.31c2.23,0,4,.32,4.86,2Zm-12.06-11.37a2.5,2.5,0,0,0-2.23,2.05l-0.5,2.45h3.6l0.5-2.45A1.51,1.51,0,0,0,336.34,304.42Z"/><path class="cls-2" d="M374.58,316.33a9,9,0,0,1-6,2.84h-3.35a3.71,3.71,0,0,1-3-1.22c-0.4.29-.79,0.58-1,0.68a5.89,5.89,0,0,1-2.52.58h-7.24c-2.16,0-3.64-1.26-3.31-2.88l2.45-11.52c0.32-1.58,2.38-2.88,4.54-2.88h7.24a3.87,3.87,0,0,1,2.59.86l1-.86H374a0.86,0.86,0,0,1,.86,1.08l-2.45,11.52a1.07,1.07,0,0,0,1.08,1.37,1.74,1.74,0,0,0,1.37-.72Zm-12-11.88a2.54,2.54,0,0,0-2.23,2.05l-1.73,8.17a1.5,1.5,0,0,0,1.37,2,2.39,2.39,0,0,0,2.2-1.94L364,306.5A1.52,1.52,0,0,0,362.63,304.45Z"/><path class="cls-2" d="M400.93,316.33a9,9,0,0,1-6,2.84h-3.35c-2.16,0-3.63-1.3-3.31-2.88l2.09-9.83a1.51,1.51,0,0,0-1.37-2.05,2.5,2.5,0,0,0-2.23,2.05l-2.48,11.63a1.34,1.34,0,0,1-1.3,1.08H375a0.85,0.85,0,0,1-.86-1.08L377.42,303a1.34,1.34,0,0,1,1.3-1.08h7.92l0.65,0.83a5.76,5.76,0,0,1,3-.83h7.23c2.16,0,3.64,1.3,3.31,2.88l-2.05,9.72a1.1,1.1,0,0,0,1.08,1.4,1.74,1.74,0,0,0,1.37-.72Z"/><path class="cls-2" d="M413.6,316.33a9,9,0,0,1-6,2.84h-3.35c-2.16,0-3.64-1.3-3.31-2.88L403.77,303a1.34,1.34,0,0,1,1.3-1.08H413a0.85,0.85,0,0,1,.86,1.08l-2.45,11.52a1.1,1.1,0,0,0,1.08,1.4,1.74,1.74,0,0,0,1.37-.72Zm0.94-16.56a1.46,1.46,0,0,1-1.33,1.08h-7.92a0.84,0.84,0,0,1-.83-1.08l0.22-1.08a1.41,1.41,0,0,1,1.3-1.08h7.92a0.84,0.84,0,0,1,.86,1.08Z"/><path class="cls-2" d="M440,316.33a9,9,0,0,1-6,2.84h-3.35c-2.16,0-3.63-1.3-3.31-2.88l2.09-9.83a1.51,1.51,0,0,0-1.37-2.05,2.5,2.5,0,0,0-2.23,2.05l-2.48,11.63a1.34,1.34,0,0,1-1.3,1.08h-7.92a0.85,0.85,0,0,1-.86-1.08L416.45,303a1.34,1.34,0,0,1,1.3-1.08h7.92l0.65,0.83a5.76,5.76,0,0,1,3-.83h7.23c2.16,0,3.64,1.3,3.31,2.88l-2.05,9.72a1.1,1.1,0,0,0,1.08,1.4,1.74,1.74,0,0,0,1.37-.72Z"/><path class="cls-2" d="M468.53,305.89a1.09,1.09,0,0,0-1.08-.68,1.84,1.84,0,0,0-1.69,1.37c-1.62,7.59-1,4.68-3.31,15.55-0.4,1.94-2.84,2.88-4.5,2.88H442c-1.66,0-3.71-.94-3.31-2.88l0.25-1.08a1.42,1.42,0,0,1,1.3-1.08h7.92A0.86,0.86,0,0,1,449,321a1.52,1.52,0,0,0,1.37,2.05,2.52,2.52,0,0,0,2.23-2.05l0.79-3.67h-9.79c-1.62,0-3.71-.94-3.28-2.88l2.05-9.72c0.29-1.4,2.34-2.88,4.54-2.88h7.24a4.06,4.06,0,0,1,2.59.83l0.4,0.4a5.51,5.51,0,0,1,3.46-1.22H464a5.27,5.27,0,0,1,4.79,2.88Zm-14.18-1.48a2.55,2.55,0,0,0-2.23,2.05l-1.51,7.06a1.53,1.53,0,0,0,1.37,2.05h1.8l1.94-9.11A1.51,1.51,0,0,0,454.35,304.42Z"/></svg>