<svg id="background" xmlns="http://www.w3.org/2000/svg" viewBox="0 0 500 400"><defs><style>.cls-1{fill:#016bb2;stroke-width:2px;}.cls-1,.cls-2{stroke:#fff;}.cls-1,.cls-2,.cls-3{stroke-miterlimit:10;}.cls-2{fill:#f4941a;}.cls-3{fill:none;stroke:#1d1d1b;}.cls-4{fill:#fff;}</style></defs><title>diagnostics-icon2</title><rect class="cls-1" width="500" height="400"/><path class="cls-2" d="M245.36,132a15.87,15.87,0,0,1-.36-31.74,151.18,151.18,0,0,0-3.1-15.63c-0.29.11-.57,0.23-0.87,0.33a15.87,15.87,0,0,1-10.14-30.08A152.45,152.45,0,0,0,223.09,41c-0.24.19-.46,0.39-0.71,0.57a15.87,15.87,0,0,1-19-25.46A152.8,152.8,0,0,0,191.72,5.28c-0.16.25-.31,0.51-0.49,0.75A15.88,15.88,0,0,1,169,9.55a15.87,15.87,0,0,1-3.71-21.89A150.93,150.93,0,0,0,150.87-19c-0.08.3-.15,0.6-0.24,0.9a15.88,15.88,0,0,1-20,10.2,15.88,15.88,0,0,1-10.29-19.67,152.3,152.3,0,0,0-15.82-1.84c0,0.3,0,.59,0,0.89A15.88,15.88,0,0,1,88.67-12.65,15.88,15.88,0,0,1,72.81-28.17a151.34,151.34,0,0,0-15.62,3.1c0.11,0.29.23,0.57,0.33,0.87a15.89,15.89,0,0,1-10.2,20,15.87,15.87,0,0,1-19.88-9.87,151.93,151.93,0,0,0-13.89,7.8c0.19,0.23.39,0.46,0.57,0.71A15.89,15.89,0,0,1,10.6,16.63a15.87,15.87,0,0,1-21.94-3.22A153.28,153.28,0,0,0-22.15,25.11c0.25,0.16.51,0.31,0.75,0.49a15.89,15.89,0,0,1,3.51,22.19,15.88,15.88,0,0,1-21.89,3.7A150.94,150.94,0,0,0-46.45,66c0.3,0.08.6,0.15,0.9,0.24a15.89,15.89,0,0,1,10.19,20A15.87,15.87,0,0,1-55,96.5a151.92,151.92,0,0,0-1.84,15.82c0.3,0,.59,0,0.89,0a15.88,15.88,0,0,1,15.88,15.88A15.88,15.88,0,0,1-55.61,144a151.12,151.12,0,0,0,3.1,15.63c0.29-.11.57-0.23,0.87-0.33a15.89,15.89,0,0,1,20,10.2A15.87,15.87,0,0,1-41.5,189.4a153.36,153.36,0,0,0,7.8,13.89c0.24-.19.46-0.39,0.71-0.57a15.89,15.89,0,0,1,22.18,3.52A15.87,15.87,0,0,1-14,228.17,152.18,152.18,0,0,0-2.33,239c0.16-.25.31-0.51,0.49-0.75A15.87,15.87,0,0,1,24.05,256.6a150.06,150.06,0,0,0,14.47,6.67c0.08-.3.15-0.6,0.24-0.9a15.88,15.88,0,0,1,30.3,9.47,151.73,151.73,0,0,0,15.82,1.84c0-.3,0-0.59,0-0.89a15.87,15.87,0,0,1,31.74-.36,150.84,150.84,0,0,0,15.63-3.09c-0.11-.29-0.23-0.57-0.33-0.87A15.87,15.87,0,0,1,162,258.33a151.62,151.62,0,0,0,13.89-7.8c-0.19-.23-0.39-0.46-0.57-0.71a15.87,15.87,0,0,1,25.46-19,153.39,153.39,0,0,0,10.81-11.69c-0.25-.16-0.51-0.31-0.75-0.49a15.88,15.88,0,0,1,18.38-25.89,151.15,151.15,0,0,0,6.67-14.47c-0.3-.08-0.6-0.15-0.9-0.24a15.88,15.88,0,0,1,9.47-30.3,152.07,152.07,0,0,0,1.84-15.82C246,132,245.66,132,245.36,132ZM-9.64,61.9C1.09,43.31,11.5,29.23,23.52,36.16c9.94,5.74,14.34,28.37,3.61,47S-5.4,109.22-15.35,103.47C-27.36,96.54-20.37,80.48-9.64,61.9Zm38.38,64.72a9,9,0,1,1-3.28-12.25A9,9,0,0,1,28.74,126.62ZM23.52,208.1C11.5,215,1.09,201-9.64,182.37s-17.72-34.64-5.71-41.58c9.95-5.74,31.74,1.77,42.47,20.35S33.46,202.36,23.52,208.1ZM139.33,53.8a9,9,0,1,1-12.25-3.28A9,9,0,0,1,139.33,53.8ZM94.7,1.66c21.46,0,38.86,2,38.86,15.84,0,11.48-17.4,26.61-38.86,26.61S55.83,29,55.83,17.5C55.83,3.63,73.23,1.66,94.7,1.66ZM57.83,49.32a9,9,0,0,1,0,17.94H57.6A9,9,0,0,1,57.83,49.32ZM50.07,190.46a9,9,0,1,1,12.25,3.28A9,9,0,0,1,50.07,190.46ZM94.7,242.6c-21.46,0-38.86-2-38.86-15.84,0-11.48,17.4-26.6,38.86-26.6s38.86,15.12,38.86,26.6C133.56,240.64,116.16,242.6,94.7,242.6Zm36.86-47.66a9,9,0,1,1,9-9A9,9,0,0,1,131.56,194.95ZM94.7,178a55.9,55.9,0,1,1,55.9-55.9A55.9,55.9,0,0,1,94.7,178ZM199,182.37C188.3,201,177.89,215,165.88,208.1c-9.94-5.74-14.34-28.37-3.61-47s32.53-26.1,42.47-20.35C216.75,147.73,209.76,163.78,199,182.37Zm-38.38-64.72a9,9,0,1,1,3.28,12.25A9,9,0,0,1,160.65,117.65Zm44.09-14.18c-9.95,5.74-31.74-1.76-42.47-20.35s-6.34-41.22,3.61-47c12-6.94,22.42,7.15,33.15,25.73S216.75,96.54,204.74,103.47Z"/><line class="cls-3" x1="168.42" y1="178.03" x2="164.84" y2="178.03"/><line class="cls-3" x1="376" y1="178.03" x2="372.42" y2="178.03"/><path class="cls-4" d="M207.58,320.16c-0.4,2-3,3.6-5.65,3.6H178.5a1.08,1.08,0,0,1-1.08-1.37l4-18.9a1.73,1.73,0,0,1,1.62-1.33h23.47c2.7,0,4.54,1.62,4.1,3.6Zm-12.24-14.87h-1.69l-3.24,15.3h1.69a3.5,3.5,0,0,0,3.35-2.52l2.16-10.22A2.12,2.12,0,0,0,195.34,305.29Z"/><path class="cls-4" d="M222.7,320.91a9,9,0,0,1-6,2.84h-3.35c-2.16,0-3.64-1.3-3.31-2.88l2.84-13.32a1.35,1.35,0,0,1,1.3-1.08h7.92a0.85,0.85,0,0,1,.86,1.08l-2.45,11.52a1.1,1.1,0,0,0,1.08,1.4,1.74,1.74,0,0,0,1.37-.72Zm0.94-16.56a1.46,1.46,0,0,1-1.33,1.08h-7.92a0.84,0.84,0,0,1-.83-1.08l0.22-1.08a1.41,1.41,0,0,1,1.3-1.08H223a0.84,0.84,0,0,1,.86,1.08Z"/><path class="cls-4" d="M249.05,320.91a9,9,0,0,1-6,2.84h-3.35a3.71,3.71,0,0,1-3-1.22c-0.4.29-.79,0.58-1,0.68a5.88,5.88,0,0,1-2.52.58H226c-2.16,0-3.64-1.26-3.31-2.88l2.45-11.52c0.32-1.58,2.38-2.88,4.54-2.88h7.24a3.87,3.87,0,0,1,2.59.86l1-.86h7.92a0.86,0.86,0,0,1,.86,1.08l-2.45,11.52a1.07,1.07,0,0,0,1.08,1.37,1.74,1.74,0,0,0,1.37-.72ZM237.1,309a2.54,2.54,0,0,0-2.23,2.05l-1.73,8.17a1.5,1.5,0,0,0,1.37,2,2.39,2.39,0,0,0,2.2-1.94l1.76-8.24A1.52,1.52,0,0,0,237.1,309Z"/><path class="cls-4" d="M277.64,310.47a1.09,1.09,0,0,0-1.08-.68,1.84,1.84,0,0,0-1.69,1.37c-1.62,7.6-1,4.68-3.31,15.55-0.4,1.94-2.84,2.88-4.5,2.88H251.11c-1.66,0-3.71-.94-3.31-2.88l0.25-1.08a1.42,1.42,0,0,1,1.3-1.08h7.92a0.86,0.86,0,0,1,.86,1.08,1.52,1.52,0,0,0,1.37,2.05,2.52,2.52,0,0,0,2.23-2.05l0.79-3.67h-9.79c-1.62,0-3.71-.94-3.28-2.88l2.05-9.72c0.29-1.4,2.34-2.88,4.54-2.88h7.24a4.06,4.06,0,0,1,2.59.83l0.4,0.4a5.51,5.51,0,0,1,3.46-1.22h3.35a5.27,5.27,0,0,1,4.79,2.88ZM263.45,309a2.55,2.55,0,0,0-2.23,2.05l-1.51,7.05a1.53,1.53,0,0,0,1.37,2.05h1.8l1.94-9.11A1.51,1.51,0,0,0,263.45,309Z"/><path class="cls-4" d="M301.68,320.91a9,9,0,0,1-6,2.84h-3.35c-2.16,0-3.63-1.3-3.31-2.88l2.09-9.83a1.51,1.51,0,0,0-1.37-2.05,2.5,2.5,0,0,0-2.23,2.05L285,322.68a1.34,1.34,0,0,1-1.3,1.08H275.8a0.85,0.85,0,0,1-.86-1.08l3.24-15.12a1.35,1.35,0,0,1,1.3-1.08h7.92l0.65,0.83a5.76,5.76,0,0,1,3-.83h7.23c2.16,0,3.64,1.3,3.31,2.88l-2.05,9.72a1.1,1.1,0,0,0,1.08,1.4,1.74,1.74,0,0,0,1.37-.72Z"/><path class="cls-4" d="M330.12,311.19a10.52,10.52,0,0,1-3.06,2.16l-1.62,7.52c-0.32,1.58-2.38,2.88-4.54,2.88H305c-2.16,0-3.64-1.3-3.31-2.88l2.45-11.52c0.32-1.58,2.38-2.88,4.54-2.88h15.91c2.16,0,3.64,1.3,3.31,2.88a1.11,1.11,0,0,0,1.08,1.4,1.74,1.74,0,0,0,1.37-.72Zm-14-2.2a2.5,2.5,0,0,0-2.23,2.05l-1.73,8.13a1.51,1.51,0,0,0,1.37,2.05,2.5,2.5,0,0,0,2.23-2.05l1.73-8.13A1.51,1.51,0,0,0,316.09,309Z"/><path class="cls-4" d="M355.65,311.05a5.47,5.47,0,0,1-4.54,1.55h-4.39c-2.16,0-2.74-.32-3-1.58-0.22-1.08-.61-1.84-1.69-1.84a2.27,2.27,0,0,0-2.2,1.84c-0.25,1.19-.22,2.41,1.15,2.66l7.2,1.33c2.77,0.5,3.85,1.33,3.28,4l-0.4,1.87c-0.4,1.94-2.88,2.88-4.54,2.88H331.31c-1.66,0-3.71-.94-3.31-2.88l0.47-2.16a1.34,1.34,0,0,1,1.3-1.08h7.56c1,0,.9.83,0.76,1.55a1.41,1.41,0,0,0,1.4,1.87,2.3,2.3,0,0,0,2.2-1.87c0.25-1.22.25-2.38-1.15-2.63l-7.2-1.33c-2.77-.5-3.82-1.44-3.28-4l0.4-1.87c0.43-1.94,2.88-2.88,4.54-2.88H350.1c1.66,0,3.71.94,3.31,2.88a1,1,0,0,0,1.12,1.26,1.94,1.94,0,0,0,1.37-.68Z"/><path class="cls-4" d="M380.2,315.51a1.08,1.08,0,0,0-1.08-.72,1.8,1.8,0,0,0-1.66,1.4l-1,4.68c-0.32,1.58-2.38,2.88-4.54,2.88H356.73c-2.16,0-3.64-1.3-3.31-2.88l3.53-16.63a1.42,1.42,0,0,1,1.33-1.08h7.92a0.83,0.83,0,0,1,.83,1.08l-0.47,2.27h9.61a0.84,0.84,0,0,1,.86,1.08l-0.18.86a1.46,1.46,0,0,1-1.33,1.08h-9.61l-2.05,9.65a1.51,1.51,0,0,0,1.37,2.05,2.5,2.5,0,0,0,2.23-2l1-4.86c0.36-1.58,2.2-2.27,4.36-2.27h2.63c2.2,0,4.1.58,5,2.23Z"/><path class="cls-4" d="M391.72,320.91a9,9,0,0,1-6,2.84h-3.35c-2.16,0-3.64-1.3-3.31-2.88l2.84-13.32a1.35,1.35,0,0,1,1.3-1.08h7.92a0.85,0.85,0,0,1,.86,1.08l-2.45,11.52a1.1,1.1,0,0,0,1.08,1.4,1.74,1.74,0,0,0,1.37-.72Zm0.94-16.56a1.46,1.46,0,0,1-1.33,1.08h-7.92a0.84,0.84,0,0,1-.83-1.08l0.22-1.08a1.41,1.41,0,0,1,1.3-1.08H392a0.84,0.84,0,0,1,.86,1.08Z"/><path class="cls-4" d="M418.18,320.34a1.06,1.06,0,0,0-1-.72,1.67,1.67,0,0,0-1.66,1.26c-0.32,1.58-2.38,2.88-4.54,2.88H395c-2.16,0-3.64-1.3-3.31-2.88l2.45-11.48c0.32-1.58,2.34-2.88,4.5-2.88h15.95c2.16,0,3.64,1.3,3.31,2.88L417.57,311a1.42,1.42,0,0,1-1.3,1.08h-7.92a0.86,0.86,0,0,1-.86-1.08,1.5,1.5,0,0,0-1.37-2,2.5,2.5,0,0,0-2.23,2l-1.73,8.13a1.51,1.51,0,0,0,1.37,2.05,2.54,2.54,0,0,0,2.23-2c0.32-1.58,2.3-2,4.46-2h3.31c2.23,0,4,.32,4.89,2Z"/><path class="cls-4" d="M445.61,311.05a5.47,5.47,0,0,1-4.54,1.55h-4.39c-2.16,0-2.74-.32-3-1.58-0.22-1.08-.61-1.84-1.69-1.84a2.27,2.27,0,0,0-2.2,1.84c-0.25,1.19-.22,2.41,1.15,2.66l7.2,1.33c2.77,0.5,3.85,1.33,3.28,4l-0.4,1.87c-0.4,1.94-2.88,2.88-4.54,2.88H421.28c-1.66,0-3.71-.94-3.31-2.88l0.47-2.16a1.34,1.34,0,0,1,1.3-1.08h7.56c1,0,.9.83,0.76,1.55a1.41,1.41,0,0,0,1.4,1.87,2.3,2.3,0,0,0,2.2-1.87c0.25-1.22.25-2.38-1.15-2.63l-7.2-1.33c-2.77-.5-3.82-1.44-3.28-4l0.4-1.87c0.43-1.94,2.88-2.88,4.54-2.88h15.12c1.66,0,3.71.94,3.31,2.88a1,1,0,0,0,1.12,1.26,1.94,1.94,0,0,0,1.37-.68Z"/></svg>