<svg id="background" xmlns="http://www.w3.org/2000/svg" viewBox="0 0 500 400"><defs><style>.cls-1{fill:#016bb2;}.cls-1,.cls-3{stroke:#1d1d1b;}.cls-1,.cls-3,.cls-4{stroke-miterlimit:10;}.cls-2{fill:#f4941a;}.cls-3,.cls-4{fill:none;}.cls-4{stroke:#fff;stroke-width:4px;}.cls-5{fill:#fff;}</style></defs><title>diagnostics-icon</title><rect class="cls-1" x="-15.45" y="-20.94" width="527.52" height="434.57"/><path class="cls-2" d="M319.08,187.89a15.87,15.87,0,0,1-.36-31.74,151.18,151.18,0,0,0-3.1-15.63c-0.29.11-.57,0.23-0.87,0.33a15.87,15.87,0,0,1-10.14-30.08,152.45,152.45,0,0,0-7.8-13.89c-0.24.19-.46,0.39-0.71,0.57a15.87,15.87,0,0,1-19-25.46,152.8,152.8,0,0,0-11.69-10.81c-0.16.25-.31,0.51-0.49,0.75a15.87,15.87,0,0,1-25.89-18.37,150.93,150.93,0,0,0-14.47-6.67c-0.08.3-.15,0.6-0.24,0.9A15.87,15.87,0,0,1,194,28.32a152.3,152.3,0,0,0-15.82-1.84c0,0.3,0,.59,0,0.89a15.87,15.87,0,0,1-31.74.36,151.34,151.34,0,0,0-15.62,3.1c0.11,0.29.23,0.57,0.33,0.87a15.87,15.87,0,0,1-30.08,10.14,151.93,151.93,0,0,0-13.89,7.8c0.19,0.23.39,0.46,0.57,0.71a15.88,15.88,0,0,1-25.46,19A153.28,153.28,0,0,0,51.57,81c0.25,0.16.51,0.31,0.75,0.49a15.88,15.88,0,0,1-18.37,25.89,150.94,150.94,0,0,0-6.67,14.47c0.3,0.08.6,0.15,0.9,0.24a15.88,15.88,0,0,1-9.47,30.3,151.92,151.92,0,0,0-1.84,15.82c0.3,0,.59,0,0.89,0a15.87,15.87,0,0,1,.36,31.74,151.12,151.12,0,0,0,3.1,15.63c0.29-.11.57-0.23,0.87-0.33A15.87,15.87,0,0,1,32.22,245.3,153.36,153.36,0,0,0,40,259.19c0.24-.19.46-0.39,0.71-0.57a15.87,15.87,0,0,1,19,25.46A152.18,152.18,0,0,0,71.4,294.88c0.16-.25.31-0.51,0.49-0.75A15.87,15.87,0,0,1,97.77,312.5a150.06,150.06,0,0,0,14.47,6.67c0.08-.3.15-0.6,0.24-0.9a15.88,15.88,0,0,1,30.3,9.47,151.73,151.73,0,0,0,15.82,1.84c0-.3,0-0.59,0-0.89a15.87,15.87,0,0,1,31.74-.36,150.84,150.84,0,0,0,15.63-3.09c-0.11-.29-0.23-0.57-0.33-0.87a15.87,15.87,0,0,1,30.08-10.14,151.62,151.62,0,0,0,13.89-7.8c-0.19-.23-0.39-0.46-0.57-0.71a15.87,15.87,0,0,1,25.46-19,153.39,153.39,0,0,0,10.81-11.69c-0.25-.16-0.51-0.31-0.75-0.49a15.88,15.88,0,0,1,18.38-25.89,151.15,151.15,0,0,0,6.67-14.47c-0.3-.08-0.6-0.15-0.9-0.24a15.88,15.88,0,0,1,9.47-30.3A152.07,152.07,0,0,0,320,187.85C319.68,187.86,319.38,187.89,319.08,187.89Zm-255-70.09C74.82,99.21,85.22,85.13,97.24,92.06c9.94,5.74,14.34,28.37,3.61,47s-32.53,26.09-42.47,20.35C46.36,152.44,53.36,136.38,64.09,117.8Zm38.38,64.72a9,9,0,1,1-3.28-12.25A9,9,0,0,1,102.46,182.52ZM97.24,264c-12,6.94-22.42-7.14-33.15-25.73s-17.72-34.64-5.71-41.58c9.95-5.74,31.74,1.77,42.47,20.35S107.18,258.26,97.24,264ZM213,109.7a9,9,0,1,1-12.25-3.28A9,9,0,0,1,213,109.7ZM168.42,57.56c21.46,0,38.86,2,38.86,15.84,0,11.48-17.4,26.61-38.86,26.61S129.56,84.89,129.56,73.4C129.56,59.53,147,57.56,168.42,57.56Zm-36.86,47.66a9,9,0,0,1,0,17.94h-0.23A9,9,0,0,1,131.56,105.22Zm-7.77,141.15A9,9,0,1,1,136,249.65,9,9,0,0,1,123.79,246.37Zm44.63,52.14c-21.46,0-38.86-2-38.86-15.84,0-11.48,17.4-26.6,38.86-26.6s38.86,15.12,38.86,26.6C207.28,296.54,189.88,298.51,168.42,298.51Zm36.86-47.66a9,9,0,1,1,9-9A9,9,0,0,1,205.28,250.85Zm-36.86-16.91a55.9,55.9,0,1,1,55.9-55.9A55.9,55.9,0,0,1,168.42,233.94Zm104.33,4.33C262,256.86,251.61,270.94,239.6,264c-9.94-5.74-14.34-28.37-3.61-47s32.53-26.1,42.47-20.35C290.47,203.63,283.48,219.68,272.75,238.27Zm-38.38-64.72a9,9,0,1,1,3.28,12.25A9,9,0,0,1,234.38,173.55Zm44.09-14.18c-9.95,5.74-31.74-1.76-42.47-20.35s-6.34-41.22,3.61-47c12-6.94,22.42,7.15,33.15,25.73S290.47,152.44,278.46,159.37Z"/><line class="cls-3" x1="168.42" y1="178.03" x2="164.84" y2="178.03"/><line class="cls-3" x1="376" y1="178.03" x2="372.42" y2="178.03"/><line class="cls-4" x1="168.42" y1="178.03" x2="414" y2="178.03"/><line class="cls-4" x1="168.42" y1="178.03" x2="272.79" y2="361.18"/><path class="cls-5" d="M238.67,211c-0.4,2-3,3.6-5.65,3.6H209.58a1.08,1.08,0,0,1-1.08-1.37l4-18.9a1.73,1.73,0,0,1,1.62-1.33h23.47c2.7,0,4.54,1.62,4.1,3.6Zm-12.24-14.87h-1.69l-3.24,15.3h1.69a3.5,3.5,0,0,0,3.35-2.52l2.16-10.22A2.12,2.12,0,0,0,226.43,196.17Z"/><path class="cls-5" d="M253.79,211.8a9,9,0,0,1-6,2.84h-3.35c-2.16,0-3.64-1.3-3.31-2.88L244,198.44a1.35,1.35,0,0,1,1.3-1.08h7.92a0.85,0.85,0,0,1,.86,1.08L251.59,210a1.1,1.1,0,0,0,1.08,1.4,1.74,1.74,0,0,0,1.37-.72Zm0.94-16.56a1.46,1.46,0,0,1-1.33,1.08h-7.92a0.84,0.84,0,0,1-.83-1.08l0.22-1.08a1.41,1.41,0,0,1,1.3-1.08h7.92a0.84,0.84,0,0,1,.86,1.08Z"/><path class="cls-5" d="M280.14,211.8a9,9,0,0,1-6,2.84h-3.35a3.71,3.71,0,0,1-3-1.22c-0.4.29-.79,0.58-1,0.68a5.88,5.88,0,0,1-2.52.58H257.1c-2.16,0-3.64-1.26-3.31-2.88l2.45-11.52c0.32-1.58,2.38-2.88,4.54-2.88H268a3.87,3.87,0,0,1,2.59.86l1-.86h7.92a0.86,0.86,0,0,1,.86,1.08L277.94,210a1.07,1.07,0,0,0,1.08,1.37,1.74,1.74,0,0,0,1.37-.72Zm-12-11.88A2.54,2.54,0,0,0,266,202l-1.73,8.17a1.5,1.5,0,0,0,1.37,2,2.39,2.39,0,0,0,2.2-1.94l1.76-8.24A1.52,1.52,0,0,0,268.19,199.92Z"/><path class="cls-5" d="M308.72,201.36a1.09,1.09,0,0,0-1.08-.68A1.84,1.84,0,0,0,306,202c-1.62,7.6-1,4.68-3.31,15.55-0.4,1.94-2.84,2.88-4.5,2.88H282.2c-1.66,0-3.71-.94-3.31-2.88l0.25-1.08a1.42,1.42,0,0,1,1.3-1.08h7.92a0.86,0.86,0,0,1,.86,1.08,1.52,1.52,0,0,0,1.37,2.05,2.52,2.52,0,0,0,2.23-2.05l0.79-3.67h-9.79c-1.62,0-3.71-.94-3.28-2.88l2.05-9.72c0.29-1.4,2.34-2.88,4.54-2.88h7.24a4.06,4.06,0,0,1,2.59.83l0.4,0.4a5.51,5.51,0,0,1,3.46-1.22h3.35a5.27,5.27,0,0,1,4.79,2.88Zm-14.18-1.48a2.55,2.55,0,0,0-2.23,2.05L290.8,209a1.53,1.53,0,0,0,1.37,2.05H294l1.94-9.11A1.51,1.51,0,0,0,294.54,199.88Z"/><path class="cls-5" d="M332.77,211.8a9,9,0,0,1-6,2.84h-3.35c-2.16,0-3.63-1.3-3.31-2.88l2.09-9.83a1.51,1.51,0,0,0-1.37-2.05,2.5,2.5,0,0,0-2.23,2.05l-2.48,11.63a1.34,1.34,0,0,1-1.3,1.08h-7.92a0.85,0.85,0,0,1-.86-1.08l3.24-15.12a1.35,1.35,0,0,1,1.3-1.08h7.92l0.65,0.83a5.76,5.76,0,0,1,3-.83h7.23c2.16,0,3.64,1.3,3.31,2.88L330.58,210a1.1,1.1,0,0,0,1.08,1.4,1.74,1.74,0,0,0,1.37-.72Z"/><path class="cls-5" d="M361.21,202.08a10.52,10.52,0,0,1-3.06,2.16l-1.62,7.52c-0.32,1.58-2.38,2.88-4.54,2.88H336.09c-2.16,0-3.64-1.3-3.31-2.88l2.45-11.52c0.32-1.58,2.38-2.88,4.54-2.88h15.91c2.16,0,3.64,1.3,3.31,2.88a1.11,1.11,0,0,0,1.08,1.4,1.74,1.74,0,0,0,1.37-.72Zm-14-2.2a2.5,2.5,0,0,0-2.23,2.05l-1.73,8.13a1.51,1.51,0,0,0,1.37,2.05,2.5,2.5,0,0,0,2.23-2.05l1.73-8.13A1.51,1.51,0,0,0,347.17,199.88Z"/><path class="cls-5" d="M386.74,201.93a5.47,5.47,0,0,1-4.54,1.55h-4.39c-2.16,0-2.74-.32-3-1.58-0.22-1.08-.61-1.84-1.69-1.84a2.27,2.27,0,0,0-2.2,1.84c-0.25,1.19-.22,2.41,1.15,2.66l7.2,1.33c2.77,0.5,3.85,1.33,3.28,4l-0.4,1.87c-0.4,1.94-2.88,2.88-4.54,2.88H362.4c-1.66,0-3.71-.94-3.31-2.88l0.47-2.16a1.34,1.34,0,0,1,1.3-1.08h7.56c1,0,.9.83,0.76,1.55a1.41,1.41,0,0,0,1.4,1.87,2.3,2.3,0,0,0,2.2-1.87c0.25-1.22.25-2.38-1.15-2.63l-7.2-1.33c-2.77-.5-3.82-1.44-3.28-4l0.4-1.87c0.43-1.94,2.88-2.88,4.54-2.88h15.12c1.66,0,3.71.94,3.31,2.88a1,1,0,0,0,1.12,1.26,1.94,1.94,0,0,0,1.37-.68Z"/><path class="cls-5" d="M411.29,206.4a1.08,1.08,0,0,0-1.08-.72,1.8,1.8,0,0,0-1.66,1.4l-1,4.68c-0.32,1.58-2.38,2.88-4.54,2.88H387.82c-2.16,0-3.64-1.3-3.31-2.88L388,195.13a1.42,1.42,0,0,1,1.33-1.08h7.92a0.83,0.83,0,0,1,.83,1.08l-0.47,2.27h9.61a0.84,0.84,0,0,1,.86,1.08l-0.18.86a1.46,1.46,0,0,1-1.33,1.08H397l-2.05,9.65a1.51,1.51,0,0,0,1.37,2.05,2.5,2.5,0,0,0,2.23-2l1-4.86c0.36-1.58,2.2-2.27,4.36-2.27h2.63c2.2,0,4.1.58,5,2.23Z"/><path class="cls-5" d="M422.81,211.8a9,9,0,0,1-6,2.84h-3.35c-2.16,0-3.64-1.3-3.31-2.88L413,198.44a1.35,1.35,0,0,1,1.3-1.08h7.92a0.85,0.85,0,0,1,.86,1.08L420.61,210a1.1,1.1,0,0,0,1.08,1.4,1.74,1.74,0,0,0,1.37-.72Zm0.94-16.56a1.46,1.46,0,0,1-1.33,1.08h-7.92a0.84,0.84,0,0,1-.83-1.08l0.22-1.08a1.41,1.41,0,0,1,1.3-1.08h7.92a0.84,0.84,0,0,1,.86,1.08Z"/><path class="cls-5" d="M449.27,211.22a1.06,1.06,0,0,0-1-.72,1.67,1.67,0,0,0-1.66,1.26c-0.32,1.58-2.38,2.88-4.54,2.88H426.12c-2.16,0-3.64-1.3-3.31-2.88l2.45-11.48c0.32-1.58,2.34-2.88,4.5-2.88H445.7c2.16,0,3.64,1.3,3.31,2.88l-0.36,1.62a1.42,1.42,0,0,1-1.3,1.08h-7.92a0.86,0.86,0,0,1-.86-1.08,1.5,1.5,0,0,0-1.37-2,2.5,2.5,0,0,0-2.23,2l-1.73,8.13a1.51,1.51,0,0,0,1.37,2.05,2.54,2.54,0,0,0,2.23-2c0.32-1.58,2.3-2,4.46-2h3.31c2.23,0,4,.32,4.89,2Z"/><path class="cls-5" d="M476.7,201.93a5.47,5.47,0,0,1-4.54,1.55h-4.39c-2.16,0-2.74-.32-3-1.58-0.22-1.08-.61-1.84-1.69-1.84a2.27,2.27,0,0,0-2.2,1.84c-0.25,1.19-.22,2.41,1.15,2.66l7.2,1.33c2.77,0.5,3.85,1.33,3.28,4l-0.4,1.87c-0.4,1.94-2.88,2.88-4.54,2.88H452.37c-1.66,0-3.71-.94-3.31-2.88l0.47-2.16a1.34,1.34,0,0,1,1.3-1.08h7.56c1,0,.9.83,0.76,1.55a1.41,1.41,0,0,0,1.4,1.87,2.3,2.3,0,0,0,2.2-1.87c0.25-1.22.25-2.38-1.15-2.63l-7.2-1.33c-2.77-.5-3.82-1.44-3.28-4l0.4-1.87c0.43-1.94,2.88-2.88,4.54-2.88h15.12c1.66,0,3.71.94,3.31,2.88a1,1,0,0,0,1.12,1.26,1.94,1.94,0,0,0,1.37-.68Z"/><line class="cls-4" x1="205.28" y1="347" x2="376" y2="227.79"/></svg>