<svg id="background" xmlns="http://www.w3.org/2000/svg" viewBox="0 0 500 400"><defs><style>.cls-1{fill:#016bb2;stroke:#fff;stroke-width:2px;}.cls-1,.cls-2{stroke-miterlimit:10;}.cls-2{fill:none;stroke:#1d1d1b;}.cls-3{fill:#fff;}</style></defs><title>gearbox-repairs-icon</title><rect class="cls-1" width="500" height="400"/><line class="cls-2" x1="168.42" y1="178.03" x2="164.84" y2="178.03"/><line class="cls-2" x1="376" y1="178.03" x2="372.42" y2="178.03"/><path class="cls-3" d="M135.35,304.31a1.76,1.76,0,0,1-1.62,1.37h-9.9a1.08,1.08,0,0,1-1.08-1.37l0-.14c0.29-1.4-.47-2.56-1.73-2.56a3.15,3.15,0,0,0-2.77,2.56l-2.16,10.22a1.85,1.85,0,0,0,1.69,2.52,3.15,3.15,0,0,0,2.81-2.52l0.79-3.78h-2.27l0.58-2.7h13.5a1.08,1.08,0,0,1,1.08,1.37l-2,9.43a1.76,1.76,0,0,1-1.62,1.37H107.21c-2.7,0-4.54-1.62-4.14-3.6l3.06-14.4c0.43-2,3-3.6,5.65-3.6h19.94c2.7,0,4.54,1.62,4.1,3.6Z"/><path class="cls-3" d="M161.67,316.69a1.08,1.08,0,0,0-1.08-.72,1.63,1.63,0,0,0-1.62,1.26c-0.36,1.58-2.38,2.84-4.54,2.84H138.53c-2.16,0-3.64-1.3-3.31-2.88l2.45-11.52c0.32-1.58,2.38-2.88,4.54-2.88h15.91c2.16,0,3.64,1.3,3.31,2.88l-0.72,3.42c-0.36,1.58-2.38,2.88-4.54,2.88h-9.75l-0.76,3.53a1.51,1.51,0,0,0,1.37,2.05,2.5,2.5,0,0,0,2.23-2c0.32-1.58,2.3-2,4.46-2H157c2.23,0,4,.32,4.86,2Zm-12.06-11.37a2.5,2.5,0,0,0-2.23,2.05l-0.5,2.45h3.6l0.5-2.45A1.51,1.51,0,0,0,149.61,305.31Z"/><path class="cls-3" d="M187.84,317.23a9,9,0,0,1-6,2.84h-3.35a3.71,3.71,0,0,1-3-1.22c-0.4.29-.79,0.58-1,0.68a5.89,5.89,0,0,1-2.52.58h-7.23c-2.16,0-3.64-1.26-3.31-2.88l2.45-11.52c0.32-1.58,2.38-2.88,4.54-2.88h7.23a3.87,3.87,0,0,1,2.59.86l1-.86h7.92a0.86,0.86,0,0,1,.86,1.08l-2.45,11.52a1.07,1.07,0,0,0,1.08,1.37,1.74,1.74,0,0,0,1.37-.72Zm-12-11.88a2.54,2.54,0,0,0-2.23,2.05l-1.73,8.17a1.49,1.49,0,0,0,1.37,2,2.39,2.39,0,0,0,2.2-1.94l1.76-8.24A1.52,1.52,0,0,0,175.89,305.35Z"/><path class="cls-3" d="M214.7,307.37a8.83,8.83,0,0,1-6,2.88h-1.73c-2.16,0-3.64-1.3-3.31-2.88a1.51,1.51,0,0,0-1.37-2.05,2.5,2.5,0,0,0-2.23,2.05L197.53,319a1.34,1.34,0,0,1-1.3,1.08h-7.92a0.85,0.85,0,0,1-.86-1.08l3.24-15.12a1.34,1.34,0,0,1,1.3-1.08h7.92l0.65,0.83a5.76,5.76,0,0,1,3-.83h5.65c2.16,0,3.64,1.3,3.31,2.88a1,1,0,0,0,1.12,1.26,1.8,1.8,0,0,0,1.33-.68Z"/><path class="cls-3" d="M238.85,317.23a9,9,0,0,1-6,2.84h-17c-2.16,0-3.64-1.3-3.31-2.88,0.25-1.22-.43,2.05,3.74-17.64a1.42,1.42,0,0,1,1.33-1.08h7.92a0.83,0.83,0,0,1,.83,1.08l-0.83,3.92a5.42,5.42,0,0,1,2.66-.68h7.24c2.16,0,3.64,1.3,3.31,2.88l-2.05,9.72a1.09,1.09,0,0,0,1.08,1.4,1.74,1.74,0,0,0,1.37-.72Zm-12-11.92a2.5,2.5,0,0,0-2.23,2.05l-2.16,10.19h1.8a2.5,2.5,0,0,0,2.23-2.05l1.73-8.14A1.51,1.51,0,0,0,226.9,305.31Z"/><path class="cls-3" d="M267.18,307.51a10.52,10.52,0,0,1-3.06,2.16l-1.62,7.52c-0.32,1.58-2.38,2.88-4.54,2.88H242.06c-2.16,0-3.64-1.3-3.31-2.88l2.45-11.52c0.32-1.58,2.38-2.88,4.54-2.88h15.91c2.16,0,3.64,1.3,3.31,2.88a1.11,1.11,0,0,0,1.08,1.4,1.74,1.74,0,0,0,1.37-.72Zm-14-2.2a2.5,2.5,0,0,0-2.23,2.05l-1.73,8.14a1.51,1.51,0,0,0,1.37,2.05,2.5,2.5,0,0,0,2.23-2.05l1.73-8.14A1.51,1.51,0,0,0,253.15,305.31Z"/><path class="cls-3" d="M291.63,303.87l-8.46,7.56,2.41,3.46a4,4,0,0,0,4.28,1.91,2,2,0,0,0,1.37-.72L291,317.23a9,9,0,0,1-6,2.84h-3.35c-2.16,0-3.1-.76-4.46-2.88l-0.58-.9-2.84,2.7a3.79,3.79,0,0,1-2.09,1.08h-7.92a0.39,0.39,0,0,1-.47-0.47,1.13,1.13,0,0,1,.4-0.61l8.46-7.56-5.26-7.56a0.74,0.74,0,0,1-.11-0.61,0.6,0.6,0,0,1,.65-0.47h7.92a2.22,2.22,0,0,1,1.62,1.08l1.73,2.7,2.88-2.7a3.68,3.68,0,0,1,2.09-1.08h7.92a0.39,0.39,0,0,1,.47.47A1.28,1.28,0,0,1,291.63,303.87Z"/><path class="cls-3" d="M332.88,317.19a8.83,8.83,0,0,1-6,2.88h-6.3c-2.16,0-2.52-1.15-2.48-3,0-2.66-.76-6.51-2.56-6.51l0.58-2.7h1.48c0.72,0,1.87-.07,2.09-1l0.86-4.21c0.18-.72-0.86-1-1.44-1h-3l-3.64,17.13a1.76,1.76,0,0,1-1.58,1.33h-9.58a1.05,1.05,0,0,1-1-1.33l4-18.93a1.77,1.77,0,0,1,1.58-1.33h22.64c2.63,0,4.43,1.55,3.92,3.92l-0.94,4.36c-0.5,2.38-3,4-5.58,3.92H325.5a4.63,4.63,0,0,1,2.84,1.4,7.32,7.32,0,0,1,1.4,2.52c0.4,1,.61,2.2,2,2.2a1.74,1.74,0,0,0,1.37-.72Z"/><path class="cls-3" d="M359.2,316.69a1.07,1.07,0,0,0-1.08-.72,1.63,1.63,0,0,0-1.62,1.26c-0.36,1.58-2.38,2.84-4.54,2.84H336.06c-2.16,0-3.64-1.3-3.31-2.88l2.45-11.52c0.32-1.58,2.38-2.88,4.54-2.88h15.91c2.16,0,3.64,1.3,3.31,2.88l-0.72,3.42c-0.36,1.58-2.38,2.88-4.54,2.88h-9.75l-0.76,3.53a1.51,1.51,0,0,0,1.37,2.05,2.5,2.5,0,0,0,2.23-2c0.32-1.58,2.3-2,4.46-2h3.31c2.23,0,4,.32,4.86,2Zm-12.06-11.37a2.5,2.5,0,0,0-2.23,2.05l-0.5,2.45H348l0.5-2.45A1.51,1.51,0,0,0,347.14,305.31Z"/><path class="cls-3" d="M385.37,317.23a8.64,8.64,0,0,1-6,2.84H371a4,4,0,0,1-2.38-.68l-1.15,5.44a1.42,1.42,0,0,1-1.33,1.08h-7.92a0.83,0.83,0,0,1-.83-1.08l4.46-20.95a1.34,1.34,0,0,1,1.3-1.08h7.92l0.65,0.83a5.76,5.76,0,0,1,3-.83h7.23c2.16,0,3.64,1.3,3.31,2.88l-2.05,9.72a1.1,1.1,0,0,0,1.08,1.4,1.74,1.74,0,0,0,1.37-.72Zm-12-11.92a2.5,2.5,0,0,0-2.23,2.05l-1.73,8.14a1.51,1.51,0,0,0,1.37,2.05,2.5,2.5,0,0,0,2.23-2.05l1.73-8.14A1.51,1.51,0,0,0,373.42,305.31Z"/><path class="cls-3" d="M411.72,317.23a9,9,0,0,1-6,2.84h-3.35a3.71,3.71,0,0,1-3-1.22c-0.4.29-.79,0.58-1,0.68a5.89,5.89,0,0,1-2.52.58h-7.24c-2.16,0-3.64-1.26-3.31-2.88l2.45-11.52c0.32-1.58,2.38-2.88,4.54-2.88h7.24a3.87,3.87,0,0,1,2.59.86l1-.86h7.92a0.86,0.86,0,0,1,.86,1.08l-2.45,11.52a1.07,1.07,0,0,0,1.08,1.37,1.74,1.74,0,0,0,1.37-.72Zm-12-11.88a2.54,2.54,0,0,0-2.23,2.05l-1.73,8.17a1.5,1.5,0,0,0,1.37,2,2.39,2.39,0,0,0,2.2-1.94l1.76-8.24A1.52,1.52,0,0,0,399.77,305.35Z"/><path class="cls-3" d="M424.4,317.23a9,9,0,0,1-6,2.84H415c-2.16,0-3.64-1.3-3.31-2.88l2.84-13.32a1.34,1.34,0,0,1,1.3-1.08h7.92a0.85,0.85,0,0,1,.86,1.08l-2.45,11.52a1.1,1.1,0,0,0,1.08,1.4,1.74,1.74,0,0,0,1.37-.72Zm0.94-16.56a1.46,1.46,0,0,1-1.33,1.08h-7.92a0.84,0.84,0,0,1-.83-1.08l0.22-1.08a1.41,1.41,0,0,1,1.3-1.08h7.92a0.84,0.84,0,0,1,.86,1.08Z"/><path class="cls-3" d="M451.25,307.37a8.83,8.83,0,0,1-6,2.88h-1.73c-2.16,0-3.64-1.3-3.31-2.88a1.51,1.51,0,0,0-1.37-2.05,2.5,2.5,0,0,0-2.23,2.05L434.08,319a1.34,1.34,0,0,1-1.3,1.08h-7.92A0.85,0.85,0,0,1,424,319l3.24-15.12a1.34,1.34,0,0,1,1.3-1.08h7.92l0.65,0.83a5.76,5.76,0,0,1,3-.83h5.65c2.16,0,3.63,1.3,3.31,2.88a1,1,0,0,0,1.12,1.26,1.8,1.8,0,0,0,1.33-.68Z"/><path class="cls-3" d="M476.7,307.37a5.47,5.47,0,0,1-4.54,1.55h-4.39c-2.16,0-2.74-.32-3-1.58-0.22-1.08-.61-1.84-1.69-1.84a2.27,2.27,0,0,0-2.2,1.84c-0.25,1.19-.22,2.41,1.15,2.66l7.2,1.33c2.77,0.5,3.85,1.33,3.28,4l-0.4,1.87c-0.4,1.94-2.88,2.88-4.54,2.88H452.37c-1.66,0-3.71-.94-3.31-2.88l0.47-2.16a1.35,1.35,0,0,1,1.3-1.08h7.56c1,0,.9.83,0.76,1.55a1.41,1.41,0,0,0,1.4,1.87,2.3,2.3,0,0,0,2.2-1.87c0.25-1.22.25-2.38-1.15-2.63l-7.2-1.33c-2.77-.5-3.82-1.44-3.28-4l0.4-1.87c0.43-1.94,2.88-2.88,4.54-2.88h15.12c1.66,0,3.71.94,3.31,2.88a1,1,0,0,0,1.12,1.26,1.94,1.94,0,0,0,1.37-.68Z"/></svg>