<svg id="background" xmlns="http://www.w3.org/2000/svg" viewBox="0 0 500 400"><defs><style>.cls-1{fill:#016bb2;stroke-width:2px;}.cls-1,.cls-3,.cls-4{stroke:#fff;stroke-miterlimit:10;}.cls-2,.cls-4{fill:#1d1d1b;}.cls-3{fill:#f4941a;}.cls-3,.cls-4{stroke-width:4px;}.cls-5{fill:#fff;}</style></defs><title>re-mapping-icon</title><rect class="cls-1" width="500" height="400"/><path class="cls-2" d="M222.72,89.31h0a21.61,21.61,0,0,0,7.77-12.06,20.57,20.57,0,0,0-1.53-14l0,0c-0.14-.27-0.28-0.54-0.43-0.81l-0.07-.14q-0.26-.46-0.55-0.92t-0.59-.89l-0.09-.12c-0.18-.25-0.36-0.49-0.55-0.73l0,0a20.57,20.57,0,0,0-12-7.36L123.48,33.1c-0.47-.1-0.95-0.18-1.42-0.24l-19.44-4.08L97.79,49h0.06c0,0.12-.07.25-0.1,0.37L76.13,140a20.57,20.57,0,0,0,1.53,14l0,0c0.14,0.27.28,0.54,0.43,0.81L78.19,155q0.26,0.46.55,0.92t0.59,0.89l0.09,0.13c0.18,0.25.36,0.49,0.55,0.73l0,0A20.57,20.57,0,0,0,92,165a21.61,21.61,0,0,0,14.22-1.88h0l0.84-.45,0.13-.07q0.48-.27.94-0.56t0.91-.61l0.12-.09,0.77-.57h0a21.61,21.61,0,0,0,7.77-12.06L127.44,108l59.81,94.37c6.18,9.76,19.38,12.52,29.41,6.17s13.16-19.47,7-29.23L163.82,85l41,8.59A21.61,21.61,0,0,0,219,91.66h0l0.84-.45,0.13-.07q0.48-.27.94-0.56t0.91-.61l0.12-.09ZM220.86,87l-0.65.48-0.11.08-0.78.52-0.81.48-0.12.07-0.71.38h0a18,18,0,1,1,6.57-27.51l0,0c0.16,0.2.32,0.41,0.47,0.63l0.08,0.11q0.26,0.37.51,0.76t0.47,0.79l0.06,0.12c0.13,0.23.25,0.46,0.37,0.69v0a18.25,18.25,0,0,1-5.32,22.32ZM108.11,158.42l0,0-0.65.48-0.11.08-0.78.52-0.81.48-0.12.07-0.71.38,0,0a18.25,18.25,0,0,1-22.45-4.71l0,0c-0.16-.2-0.32-0.42-0.47-0.63L81.84,155q-0.26-.37-0.51-0.76t-0.47-.79l-0.06-.12c-0.13-.23-0.25-0.46-0.37-0.69v0A18.44,18.44,0,1,1,108.11,158.42Z"/><path class="cls-3" d="M304.74,259.42v0a24.83,24.83,0,0,0,24.5,19.47h0.06l1.08,0h0.19q0.63,0,1.26-.11t1.25-.18l0.18,0,1.07-.21h0.05a24.64,24.64,0,0,0,14.06-8.8l67.65-85.26c0.35-.44.68-0.9,1-1.36l14.43-18.18-19-15.11,0,0.06-0.34-.29L326.81,81.72a24.64,24.64,0,0,0-15.69-5.38h-0.05l-1.08,0h-0.18q-0.63,0-1.26.11t-1.25.18l-0.18,0-1.06.2H306a24.83,24.83,0,0,0-19.43,24.53,0.15,0.15,0,0,0,0,0c0,0.37,0,.73,0,1.1,0,0.06,0,.11,0,0.17q0,0.63.11,1.26t0.18,1.25l0,0.16c0.06,0.36.13,0.73,0.21,1.08h0a24.62,24.62,0,0,0,8.81,14.09L334.25,151,202.73,166.15a24.83,24.83,0,0,0,5.68,49.33l131.53-15.15-30.4,38.31a24.62,24.62,0,0,0-5.38,15.73h0c0,0.37,0,.74,0,1.1,0,0.06,0,.11,0,0.17q0,0.63.11,1.26t0.18,1.25l0,0.17C304.59,258.7,304.66,259.06,304.74,259.42Z"/><circle class="cls-4" cx="205.93" cy="190.62" r="17.59"/><path class="cls-5" d="M137.51,301.18a1.72,1.72,0,0,1-1.58,1.37h-13L122,306.94h9.54a1,1,0,0,1,1,1.37l-0.25,1.15a1.72,1.72,0,0,1-1.58,1.33h-9.54l-0.94,4.36h13a1.08,1.08,0,0,1,1,1.37l-0.4,1.8a1.72,1.72,0,0,1-1.58,1.33H108.21a1,1,0,0,1-1-1.33l4-18.93a1.72,1.72,0,0,1,1.58-1.33h24a1.06,1.06,0,0,1,1,1.33Z"/><path class="cls-5" d="M168.76,306.14a1.76,1.76,0,0,1-1.66,1.33h-9.9a1,1,0,0,1-1-1.33l0.5-2.41c0.29-1.4-.47-2.56-1.73-2.56a3.15,3.15,0,0,0-2.77,2.56L150,314a1.85,1.85,0,0,0,1.69,2.52,3.15,3.15,0,0,0,2.81-2.52l0.5-2.41a1.76,1.76,0,0,1,1.62-1.37h9.9a1.08,1.08,0,0,1,1.08,1.37l-1,4.5c-0.4,2-3,3.6-5.65,3.6H141.08c-2.7,0-4.54-1.62-4.14-3.6l3.06-14.4c0.43-2,3-3.6,5.65-3.6h19.94c2.7,0,4.54,1.62,4.1,3.6Z"/><path class="cls-5" d="M198.93,316c-0.4,2-3,3.6-5.65,3.6H173.37c-2.7,0-4.54-1.62-4.14-3.6l3.56-16.67a1.73,1.73,0,0,1,1.62-1.33h9.9a1.07,1.07,0,0,1,1.08,1.33L182.3,314a1.85,1.85,0,0,0,1.69,2.52A3.15,3.15,0,0,0,186.8,314l3.1-14.58a1.73,1.73,0,0,1,1.62-1.33h9.9a1.07,1.07,0,0,1,1.08,1.33Z"/><path class="cls-5" d="M243.35,316.76a8.83,8.83,0,0,1-6,2.88H231c-2.16,0-2.52-1.15-2.48-3,0-2.66-.76-6.51-2.56-6.51l0.58-2.7H228c0.72,0,1.87-.07,2.09-1l0.86-4.21c0.18-.72-0.86-1-1.44-1h-3l-3.64,17.13a1.76,1.76,0,0,1-1.58,1.33h-9.57a1.05,1.05,0,0,1-1-1.33l4-18.93a1.76,1.76,0,0,1,1.58-1.33H239c2.63,0,4.43,1.55,3.92,3.92L242,306.33c-0.5,2.38-3,4-5.58,3.92H236a4.64,4.64,0,0,1,2.84,1.4,7.32,7.32,0,0,1,1.4,2.52c0.4,1,.61,2.2,2,2.2a1.74,1.74,0,0,0,1.37-.72Z"/><path class="cls-5" d="M269.67,316.26a1.08,1.08,0,0,0-1.08-.72A1.63,1.63,0,0,0,267,316.8c-0.36,1.58-2.38,2.84-4.54,2.84H246.52c-2.16,0-3.64-1.3-3.31-2.88l2.45-11.52c0.32-1.58,2.38-2.88,4.54-2.88h15.91c2.16,0,3.64,1.3,3.31,2.88l-0.72,3.42c-0.36,1.58-2.38,2.88-4.54,2.88h-9.75l-0.76,3.53a1.51,1.51,0,0,0,1.37,2.05,2.5,2.5,0,0,0,2.23-2c0.32-1.58,2.3-2,4.46-2H265c2.23,0,4,.32,4.86,2Zm-12.06-11.37a2.5,2.5,0,0,0-2.23,2.05l-0.5,2.45h3.6l0.5-2.45A1.51,1.51,0,0,0,257.61,304.88Z"/><path class="cls-5" d="M286.05,310.75a1.72,1.72,0,0,1-1.62,1.37h-12.6a1.08,1.08,0,0,1-1.08-1.37l0.83-3.82a1.76,1.76,0,0,1,1.66-1.37h12.6a1.08,1.08,0,0,1,1,1.37Z"/><path class="cls-5" d="M323.45,316.8a9,9,0,0,1-6,2.84h-3c-2.16,0-3.64-1.3-3.31-2.88l2.09-9.83a1.51,1.51,0,0,0-1.37-2.05,2.43,2.43,0,0,0-2.09,1.55l-0.11.61-2.2,10.33a1.42,1.42,0,0,1-1.33,1.08h-4.72a0.85,0.85,0,0,1-.86-1.08l2.23-10.44a1.51,1.51,0,0,0-1.37-2.05,2.5,2.5,0,0,0-2.23,2.05l-2.48,11.63a1.34,1.34,0,0,1-1.3,1.08h-7.56a0.85,0.85,0,0,1-.86-1.08l3.24-15.12a1.34,1.34,0,0,1,1.3-1.08h7.56l0.65,0.83a5.76,5.76,0,0,1,3-.83h4.07a3.53,3.53,0,0,1,2.92,1.22,5.31,5.31,0,0,1,3.46-1.22H320c2.2,0,3.64,1.3,3.31,2.88L321.26,315a1.1,1.1,0,0,0,1.08,1.4,1.74,1.74,0,0,0,1.37-.72Z"/><path class="cls-5" d="M349.81,316.8a9,9,0,0,1-6,2.84h-3.35a3.71,3.71,0,0,1-3-1.22c-0.4.29-.79,0.58-1,0.68a5.89,5.89,0,0,1-2.52.58h-7.24c-2.16,0-3.64-1.26-3.31-2.88l2.45-11.52c0.32-1.58,2.38-2.88,4.54-2.88h7.24a3.87,3.87,0,0,1,2.59.86l1-.86h7.92a0.86,0.86,0,0,1,.86,1.08L347.61,315a1.07,1.07,0,0,0,1.08,1.37,1.74,1.74,0,0,0,1.37-.72Zm-12-11.88a2.54,2.54,0,0,0-2.23,2.05l-1.73,8.17a1.5,1.5,0,0,0,1.37,2,2.39,2.39,0,0,0,2.2-1.94l1.76-8.24A1.52,1.52,0,0,0,337.86,304.92Z"/><path class="cls-5" d="M376.16,316.8a8.64,8.64,0,0,1-6,2.84h-8.35a4,4,0,0,1-2.38-.68l-1.15,5.44a1.42,1.42,0,0,1-1.33,1.08H349a0.83,0.83,0,0,1-.83-1.08l4.46-20.95a1.34,1.34,0,0,1,1.3-1.08h7.92l0.65,0.83a5.76,5.76,0,0,1,3-.83h7.23c2.16,0,3.64,1.3,3.31,2.88L374,315a1.1,1.1,0,0,0,1.08,1.4,1.74,1.74,0,0,0,1.37-.72Zm-12-11.92a2.5,2.5,0,0,0-2.23,2.05l-1.73,8.14a1.51,1.51,0,0,0,1.37,2.05,2.5,2.5,0,0,0,2.23-2.05l1.73-8.14A1.51,1.51,0,0,0,364.21,304.88Z"/><path class="cls-5" d="M402.51,316.8a8.64,8.64,0,0,1-6,2.84h-8.35a4,4,0,0,1-2.38-.68l-1.15,5.44a1.42,1.42,0,0,1-1.33,1.08h-7.92a0.83,0.83,0,0,1-.83-1.08L379,303.45a1.34,1.34,0,0,1,1.3-1.08h7.92l0.65,0.83a5.76,5.76,0,0,1,3-.83h7.23c2.16,0,3.64,1.3,3.31,2.88L400.31,315a1.1,1.1,0,0,0,1.08,1.4,1.74,1.74,0,0,0,1.37-.72Zm-12-11.92a2.5,2.5,0,0,0-2.23,2.05l-1.73,8.14a1.51,1.51,0,0,0,1.37,2.05,2.5,2.5,0,0,0,2.23-2.05l1.73-8.14A1.51,1.51,0,0,0,390.56,304.88Z"/><path class="cls-5" d="M415.18,316.8a9,9,0,0,1-6,2.84h-3.35c-2.16,0-3.64-1.3-3.31-2.88l2.84-13.32a1.34,1.34,0,0,1,1.3-1.08h7.92a0.85,0.85,0,0,1,.86,1.08L413,315a1.1,1.1,0,0,0,1.08,1.4,1.74,1.74,0,0,0,1.37-.72Zm0.94-16.56a1.46,1.46,0,0,1-1.33,1.08h-7.92a0.84,0.84,0,0,1-.83-1.08l0.22-1.08a1.41,1.41,0,0,1,1.3-1.08h7.92a0.84,0.84,0,0,1,.86,1.08Z"/><path class="cls-5" d="M441.53,316.8a9,9,0,0,1-6,2.84h-3.35c-2.16,0-3.63-1.3-3.31-2.88l2.09-9.83a1.51,1.51,0,0,0-1.37-2.05,2.5,2.5,0,0,0-2.23,2.05l-2.48,11.63a1.34,1.34,0,0,1-1.3,1.08h-7.92a0.85,0.85,0,0,1-.86-1.08L418,303.45a1.34,1.34,0,0,1,1.3-1.08h7.92l0.65,0.83a5.76,5.76,0,0,1,3-.83h7.23c2.16,0,3.64,1.3,3.31,2.88L439.34,315a1.1,1.1,0,0,0,1.08,1.4,1.74,1.74,0,0,0,1.37-.72Z"/><path class="cls-5" d="M470.12,306.36a1.09,1.09,0,0,0-1.08-.68,1.84,1.84,0,0,0-1.69,1.37c-1.62,7.59-1,4.68-3.31,15.55-0.4,1.94-2.84,2.88-4.5,2.88H443.59c-1.66,0-3.71-.94-3.31-2.88l0.25-1.08a1.42,1.42,0,0,1,1.3-1.08h7.92a0.86,0.86,0,0,1,.86,1.08,1.52,1.52,0,0,0,1.37,2.05,2.52,2.52,0,0,0,2.23-2.05l0.79-3.67h-9.79c-1.62,0-3.71-.94-3.28-2.88l2.05-9.72c0.29-1.4,2.34-2.88,4.54-2.88h7.24a4.06,4.06,0,0,1,2.59.83l0.4,0.4a5.51,5.51,0,0,1,3.46-1.22h3.35a5.27,5.27,0,0,1,4.79,2.88Zm-14.18-1.48a2.55,2.55,0,0,0-2.23,2.05L452.19,314a1.53,1.53,0,0,0,1.37,2.05h1.8l1.94-9.11A1.51,1.51,0,0,0,455.93,304.88Z"/></svg>