<svg id="background" xmlns="http://www.w3.org/2000/svg" viewBox="0 0 500 400"><defs><style>.cls-1{fill:#016bb2;stroke-width:2px;}.cls-1,.cls-2{stroke:#fff;}.cls-1,.cls-2,.cls-4{stroke-miterlimit:10;}.cls-2{fill:#1e1e1c;}.cls-3{fill:#f4951b;}.cls-4{fill:none;stroke:#1d1d1b;}.cls-5{fill:#fff;}</style></defs><title>repairs-icon3</title><rect class="cls-1" width="500" height="400"/><path class="cls-2" d="M427.27,74.7c-0.84.93-1.44,1.55-2,2.23-6.87,8.41-13.7,16.86-20.66,25.19-0.77.92-2.42,1.85-3.42,1.65-6.94-1.41-13.84-3.05-20.7-4.79A4.34,4.34,0,0,1,378,96.75c-2.78-6-5.5-12.07-8-18.23a5,5,0,0,1,.7-4c4.37-5.83,9-11.46,13.46-17.21,2.59-3.34,5.06-6.79,7.58-10.19l-0.48-1.46c-3.72.35-7.64,0-11.11,1.17C364,52.15,350.73,61.59,342.74,77.49a110.24,110.24,0,0,0-6.89,17.16,62.82,62.82,0,0,1-8.15,17.13L82,294.34a4.36,4.36,0,0,0,.14-1l-0.37-.16L81.44,293a4.34,4.34,0,0,0-.88,1.22c-0.16.38-1.45-.08-2.86-1l-0.49-.73c-0.6-.9.14-4.49,0.37-5s-1.43-1.35-3.68-1.83-8.23-.47-8.17.1a16.49,16.49,0,0,1-.34,3.49l-0.24,1.29c-2.69.94-4.93,1.32-5,.86a4.62,4.62,0,0,0-.51-1.53l-0.4,0-0.4,0a4.53,4.53,0,0,0-.15,1.58c0.05,0.45-1.21.72-2.8,0.61l-0.75-.37c-1-.48-2.12-4-2.19-4.53s-1.9-.47-4.08.24-7.41,3.74-7.06,4.2a16.44,16.44,0,0,1,1.45,3.19l0.44,1.26c-1.91,2.17-3.74,3.6-4.06,3.16a5,5,0,0,0-1.29-1.18l-0.32.24h0l-0.32.24a4.9,4.9,0,0,0,.74,1.54c0.31,0.42-.58,1.3-2,2l-0.81.05c-1.08.07-3.81-2.36-4.16-2.82s-1.9.57-3.46,2.3-4.53,6.86-4,7.09a16.4,16.4,0,0,1,2.86,2l1,0.86c-0.56,2.82-1.48,4.92-2,4.68a5.54,5.54,0,0,0-1.83-.43l-0.16.37-0.16.37a5.36,5.36,0,0,0,1.54,1c0.55,0.24.27,1.49-.61,2.78l-0.69.46c-0.9.6-4.49-.13-5-0.36s-1.36,1.43-1.84,3.68-0.49,8.23.08,8.16a16.54,16.54,0,0,1,3.49.34L22,332.9c0.94,2.63,1.15,4.84.48,4.92a5.92,5.92,0,0,0-1.91.56l0,0.4,0,0.4a5.81,5.81,0,0,0,2,.1c0.66-.08,1.11,1.2,1,2.84l-0.38.77c-0.48,1-4,2.13-4.54,2.19s-0.48,1.9.23,4.07,3.72,7.39,4.18,7a16.52,16.52,0,0,1,3.2-1.46l1.16-.41c2.06,1.68,3.28,3.41,2.72,3.82a6.09,6.09,0,0,0-1.41,1.46L29,359.93a0.73,0.73,0,0,0,1,.15l1-.76c0.56-.42,1.67.52,2.47,2.09l0.06,0.91c0.07,1.08-2.37,3.82-2.83,4.16s0.57,1.9,2.29,3.45,6.86,4.51,7.09,4a16.55,16.55,0,0,1,2-2.86l0.76-.88c2.5,0.36,4.33,1.16,4.06,1.79a5.92,5.92,0,0,0-.48,1.93L46.84,374a0.73,0.73,0,0,0,.72-0.09l0.1-.07c0.07-.12.36-0.74,0.64-1.38s1.8-.34,3.4.66l0.54,0.8c0.6,0.9-.14,4.48-0.37,5s1.43,1.35,3.68,1.83,8.23,0.47,8.17-.1a16.48,16.48,0,0,1,.34-3.49l0.21-1.1c2.24-.93,4.13-1.19,4.2-0.57a5.51,5.51,0,0,0,.54,1.81l0.4,0a0.72,0.72,0,0,0,.35-0.14L70,377a8.25,8.25,0,0,0,0-1.69c-0.07-.64,1.49-1.13,3.47-1.08l0.91,0.45c1,0.48,2.12,4,2.19,4.53s1.9,0.47,4.08-.23,7.41-3.73,7.06-4.2a16.44,16.44,0,0,1-1.45-3.19l-0.36-1c1.43-1.89,2.87-3.08,3.19-2.64a4.62,4.62,0,0,0,.94,1,1.23,1.23,0,0,0,.67,0l0.2-.35a3,3,0,0,0-.67-1.51c-0.34-.46.83-1.64,2.61-2.62l1-.07c1.08-.07,3.81,2.36,4.16,2.82s1.9-.57,3.46-2.3,4.53-6.86,4-7.09a16.36,16.36,0,0,1-2.86-2l-0.84-.72c0.3-2.37.9-4.15,1.33-4a6.11,6.11,0,0,0,1.31.4l0.2-.15a0.73,0.73,0,0,0,.23-0.3l0.16-.37a4.77,4.77,0,0,0-1.38-.95c-0.46-.2,0-1.77,1.07-3.49l0.85-.57c0.9-.6,4.49.13,5,0.36s1.36-1.43,1.84-3.68,0.49-8.23-.08-8.16a16.45,16.45,0,0,1-3.49-.33l-1.12-.21c-0.93-2.29-1.35-4.2-.94-4.25s0.87-.12,1-0.15l0.1-.07a0.73,0.73,0,0,0,.29-0.67l0-.4a4.45,4.45,0,0,0-1.55-.14c-0.39,0-.67-1.19-0.68-2.83l4.93-3.66h0.05a0.33,0.33,0,0,0,.23-0.2l247.06-183.6-0.27-.37a43.38,43.38,0,0,1,7-.83c2.73-.1,5.47-0.09,8.2-0.26,5.89-.38,11.87-0.3,17.65-1.39,10.68-2,20-6.85,26.38-16.48A72.2,72.2,0,0,0,428,93C429.23,87,429.86,80.9,427.27,74.7ZM99.65,307.22a0.72,0.72,0,0,0-1-.12l-0.59.44c-0.26.19-.9-0.48-1.58-1.56L300.2,154.61l1.71,2.3Z"/><path class="cls-3" d="M92.9,330.92l-3.51-.51a22.84,22.84,0,0,0-4.46-12,23.09,23.09,0,0,0-41.5,15.82l2.28,0.33,8.55,1.25L55.8,336,77,339.11a12.68,12.68,0,0,1-12.52,5.55l-1.53,10.28a23.08,23.08,0,0,0,24.88-14.25l3.51,0.51A26.48,26.48,0,1,1,70.4,306l0.33-2.21v0L71,302l0.94-6.3a36.83,36.83,0,1,0,31.4,36.79Zm-14.28-2.08-23-3.35A12.64,12.64,0,0,1,78.62,328.84Z"/><line class="cls-4" x1="168.42" y1="178.03" x2="164.84" y2="178.03"/><line class="cls-4" x1="376" y1="178.03" x2="372.42" y2="178.03"/><path class="cls-5" d="M191.26,272.78a1.72,1.72,0,0,1-1.58,1.33h-9.75c-1.19,0-1.12-1-.9-1.94,0.25-1.3-.32-2.56-1.66-2.56a3.09,3.09,0,0,0-2.7,2.56c-0.4,1.91-.07,3.35,1.84,3.6l8.06,1c3.2,0.4,5.54,1.4,4.72,5.33l-0.5,2.41c-0.5,2.38-3.46,3.6-5.51,3.6H163.61c-2.05,0-4.46-1.22-4-3.6l0.58-2.7a1.72,1.72,0,0,1,1.58-1.33h9.79c1.15,0,1.08,1,.86,1.94-0.25,1.3.32,2.52,1.66,2.52a3,3,0,0,0,2.7-2.52,2.77,2.77,0,0,0-.25-2.34,2.44,2.44,0,0,0-1.58-1.26l-8.06-1c-3-.36-5.47-1.76-4.72-5.33l0.5-2.41c0.5-2.38,3.46-3.6,5.51-3.6h19.65c2.05,0,4.46,1.22,4,3.6Z"/><path class="cls-5" d="M217.68,284.7a1.08,1.08,0,0,0-1.08-.72,1.63,1.63,0,0,0-1.62,1.26c-0.36,1.58-2.38,2.84-4.54,2.84H194.54c-2.16,0-3.64-1.3-3.31-2.88l2.45-11.52c0.32-1.58,2.38-2.88,4.54-2.88h15.91c2.16,0,3.64,1.3,3.31,2.88l-0.72,3.42c-0.36,1.58-2.38,2.88-4.54,2.88h-9.75l-0.76,3.53a1.51,1.51,0,0,0,1.37,2.05,2.5,2.5,0,0,0,2.23-2c0.32-1.58,2.3-2,4.46-2H213c2.23,0,4,.32,4.86,2Zm-12.06-11.37a2.5,2.5,0,0,0-2.23,2.05l-0.5,2.45h3.6l0.5-2.45A1.51,1.51,0,0,0,205.62,273.32Z"/><path class="cls-5" d="M244.36,275.37a8.83,8.83,0,0,1-6,2.88h-1.73c-2.16,0-3.64-1.3-3.31-2.88a1.51,1.51,0,0,0-1.37-2.05,2.5,2.5,0,0,0-2.23,2.05L227.19,287a1.34,1.34,0,0,1-1.3,1.08H218a0.85,0.85,0,0,1-.86-1.08l3.24-15.12a1.34,1.34,0,0,1,1.3-1.08h7.92l0.65,0.83a5.76,5.76,0,0,1,3-.83h5.65c2.16,0,3.64,1.3,3.31,2.88a1,1,0,0,0,1.12,1.26,1.8,1.8,0,0,0,1.33-.68Z"/><path class="cls-5" d="M269.7,274.83a1.08,1.08,0,0,0-1.08-.72,2.13,2.13,0,0,0-1.66,1.4L260.16,287a2.2,2.2,0,0,1-1.55,1.08H247.09A1.11,1.11,0,0,1,246,287l-1.76-15.12a1.08,1.08,0,0,1,1.08-1.08h7.92a1.06,1.06,0,0,1,1.08,1.08l0.07,10.76,3.82-9a4.92,4.92,0,0,1,4.54-2.84c1.26,0,2.3,0,2.3,0a5.69,5.69,0,0,1,4.9,2.88Z"/><path class="cls-5" d="M280,285.24a9,9,0,0,1-6,2.84h-3.35c-2.16,0-3.64-1.3-3.31-2.88l2.84-13.32a1.34,1.34,0,0,1,1.3-1.08h7.92a0.85,0.85,0,0,1,.86,1.08L277.8,283.4a1.09,1.09,0,0,0,1.08,1.4,1.74,1.74,0,0,0,1.37-.72Zm0.94-16.56a1.46,1.46,0,0,1-1.33,1.08h-7.92a0.84,0.84,0,0,1-.83-1.08l0.22-1.08a1.41,1.41,0,0,1,1.3-1.08h7.92a0.84,0.84,0,0,1,.86,1.08Z"/><path class="cls-5" d="M306.45,284.66a1.06,1.06,0,0,0-1-.72,1.67,1.67,0,0,0-1.66,1.26c-0.32,1.58-2.38,2.88-4.54,2.88H283.31c-2.16,0-3.64-1.3-3.31-2.88l2.45-11.48c0.32-1.58,2.34-2.88,4.5-2.88h15.95c2.16,0,3.64,1.3,3.31,2.88l-0.36,1.62a1.42,1.42,0,0,1-1.3,1.08h-7.92a0.86,0.86,0,0,1-.86-1.08,1.5,1.5,0,0,0-1.37-2,2.51,2.51,0,0,0-2.23,2l-1.73,8.14a1.51,1.51,0,0,0,1.37,2.05,2.54,2.54,0,0,0,2.23-2c0.32-1.58,2.3-2,4.46-2h3.31c2.23,0,4,.32,4.9,2Z"/><path class="cls-5" d="M318.91,285.24a9,9,0,0,1-6,2.84h-3.35c-2.16,0-3.64-1.3-3.31-2.88l2.84-13.32a1.34,1.34,0,0,1,1.3-1.08h7.92a0.85,0.85,0,0,1,.86,1.08l-2.45,11.52a1.09,1.09,0,0,0,1.08,1.4,1.74,1.74,0,0,0,1.37-.72Zm0.94-16.56a1.46,1.46,0,0,1-1.33,1.08H310.6a0.84,0.84,0,0,1-.83-1.08L310,267.6a1.41,1.41,0,0,1,1.3-1.08h7.92a0.84,0.84,0,0,1,.86,1.08Z"/><path class="cls-5" d="M345.26,285.24a9,9,0,0,1-6,2.84H335.9c-2.16,0-3.64-1.3-3.31-2.88l2.09-9.83a1.51,1.51,0,0,0-1.37-2.05,2.5,2.5,0,0,0-2.23,2.05L328.6,287a1.34,1.34,0,0,1-1.3,1.08h-7.92a0.85,0.85,0,0,1-.86-1.08l3.24-15.12a1.34,1.34,0,0,1,1.3-1.08H331l0.65,0.83a5.76,5.76,0,0,1,3-.83h7.23c2.16,0,3.64,1.3,3.31,2.88l-2.05,9.72a1.1,1.1,0,0,0,1.08,1.4,1.74,1.74,0,0,0,1.37-.72Z"/><path class="cls-5" d="M373.85,274.8a1.09,1.09,0,0,0-1.08-.68,1.84,1.84,0,0,0-1.69,1.37c-1.62,7.6-1,4.68-3.31,15.55-0.4,1.94-2.84,2.88-4.5,2.88H347.32c-1.66,0-3.71-.94-3.31-2.88l0.25-1.08a1.42,1.42,0,0,1,1.3-1.08h7.92a0.86,0.86,0,0,1,.86,1.08A1.52,1.52,0,0,0,355.7,292a2.52,2.52,0,0,0,2.23-2.05l0.79-3.67h-9.79c-1.62,0-3.71-.94-3.28-2.88l2.05-9.72c0.29-1.4,2.34-2.88,4.54-2.88h7.24a4.05,4.05,0,0,1,2.59.83l0.4,0.4a5.51,5.51,0,0,1,3.46-1.22h3.35a5.27,5.27,0,0,1,4.79,2.88Zm-14.18-1.48a2.55,2.55,0,0,0-2.23,2.05l-1.51,7.06a1.53,1.53,0,0,0,1.37,2.05h1.8l1.94-9.11A1.51,1.51,0,0,0,359.66,273.32Z"/><path class="cls-5" d="M407.61,285.24a9,9,0,0,1-6,2.84h-3.35a3.71,3.71,0,0,1-3-1.22c-0.4.29-.79,0.58-1,0.68a5.89,5.89,0,0,1-2.52.58h-7.24c-2.16,0-3.64-1.26-3.31-2.88l2.45-11.52c0.32-1.58,2.38-2.88,4.54-2.88h7.24a3.87,3.87,0,0,1,2.59.86l1-.86H407a0.86,0.86,0,0,1,.86,1.08l-2.45,11.52a1.07,1.07,0,0,0,1.08,1.37,1.74,1.74,0,0,0,1.37-.72Zm-12-11.88a2.54,2.54,0,0,0-2.23,2.05l-1.73,8.17a1.5,1.5,0,0,0,1.37,2,2.39,2.39,0,0,0,2.2-1.94l1.76-8.24A1.52,1.52,0,0,0,395.66,273.36Z"/><path class="cls-5" d="M434,285.24a9,9,0,0,1-6,2.84h-3.35c-2.16,0-3.63-1.3-3.31-2.88l2.09-9.83a1.51,1.51,0,0,0-1.37-2.05,2.5,2.5,0,0,0-2.23,2.05L417.3,287a1.34,1.34,0,0,1-1.3,1.08h-7.92a0.85,0.85,0,0,1-.86-1.08l3.24-15.12a1.34,1.34,0,0,1,1.3-1.08h7.92l0.65,0.83a5.76,5.76,0,0,1,3-.83h7.23c2.16,0,3.64,1.3,3.31,2.88l-2.05,9.72a1.1,1.1,0,0,0,1.08,1.4,1.74,1.74,0,0,0,1.37-.72Z"/><path class="cls-5" d="M458.12,283.4a1,1,0,0,0,1.08,1.33,1.82,1.82,0,0,0,1.37-.68l-0.25,1.12a8.87,8.87,0,0,1-6,2.92H451a3.64,3.64,0,0,1-3-1.3,3.16,3.16,0,0,1-1,.68,6.66,6.66,0,0,1-2.52.61h-7.24c-2.16,0-3.64-1.3-3.31-2.88l2.45-11.52c0.32-1.58,2.38-2.88,4.54-2.88h7.24a4,4,0,0,1,2.38.68l0.83-4a1.42,1.42,0,0,1,1.33-1.08h7.92a0.83,0.83,0,0,1,.83,1.08Zm-9.75-10.08a2.5,2.5,0,0,0-2.23,2.05l-1.73,8.14a1.51,1.51,0,0,0,1.37,2.05,2.43,2.43,0,0,0,2.2-1.94l1.76-8.31A1.48,1.48,0,0,0,448.37,273.32Z"/><path class="cls-5" d="M144.56,304.9a1.76,1.76,0,0,1-1.62,1.37H133A1.08,1.08,0,0,1,132,304.9l0-.14c0.29-1.4-.47-2.56-1.73-2.56a3.15,3.15,0,0,0-2.77,2.56L125.34,315A1.85,1.85,0,0,0,127,317.5a3.15,3.15,0,0,0,2.81-2.52l0.79-3.78h-2.27l0.58-2.7h13.5a1.08,1.08,0,0,1,1.08,1.37l-2,9.43a1.76,1.76,0,0,1-1.62,1.37H116.41c-2.7,0-4.54-1.62-4.14-3.6l3.06-14.4c0.43-2,3-3.6,5.65-3.6h19.94c2.7,0,4.54,1.62,4.1,3.6Z"/><path class="cls-5" d="M170.88,317.29a1.08,1.08,0,0,0-1.08-.72,1.63,1.63,0,0,0-1.62,1.26c-0.36,1.58-2.38,2.84-4.54,2.84H147.73c-2.16,0-3.64-1.3-3.31-2.88l2.45-11.52c0.32-1.58,2.38-2.88,4.54-2.88h15.91c2.16,0,3.64,1.3,3.31,2.88l-0.72,3.42c-0.36,1.58-2.38,2.88-4.54,2.88h-9.75l-0.76,3.53a1.51,1.51,0,0,0,1.37,2.05,2.5,2.5,0,0,0,2.23-2c0.32-1.58,2.3-2,4.46-2h3.31c2.23,0,4,.32,4.86,2Zm-12.06-11.37a2.5,2.5,0,0,0-2.23,2.05l-0.5,2.45h3.6l0.5-2.45A1.51,1.51,0,0,0,158.82,305.91Z"/><path class="cls-5" d="M197,317.83a9,9,0,0,1-6,2.84h-3.35c-2.16,0-3.64-1.3-3.31-2.88l2.09-9.83a1.51,1.51,0,0,0-1.37-2.05,2.5,2.5,0,0,0-2.23,2.05l-2.48,11.63a1.34,1.34,0,0,1-1.3,1.08h-7.92a0.85,0.85,0,0,1-.86-1.08l3.24-15.12a1.34,1.34,0,0,1,1.3-1.08h7.92l0.65,0.83a5.76,5.76,0,0,1,3-.83h7.24c2.16,0,3.64,1.3,3.31,2.88L194.85,316a1.09,1.09,0,0,0,1.08,1.4,1.74,1.74,0,0,0,1.37-.72Z"/><path class="cls-5" d="M223.51,317.29a1.08,1.08,0,0,0-1.08-.72,1.63,1.63,0,0,0-1.62,1.26c-0.36,1.58-2.38,2.84-4.54,2.84H200.36c-2.16,0-3.64-1.3-3.31-2.88l2.45-11.52c0.32-1.58,2.38-2.88,4.54-2.88h15.91c2.16,0,3.64,1.3,3.31,2.88l-0.72,3.42c-0.36,1.58-2.38,2.88-4.54,2.88h-9.75l-0.76,3.53a1.51,1.51,0,0,0,1.37,2.05,2.5,2.5,0,0,0,2.23-2c0.32-1.58,2.3-2,4.46-2h3.31c2.23,0,4,.32,4.86,2Zm-12.06-11.37a2.5,2.5,0,0,0-2.23,2.05l-0.5,2.45h3.6l0.5-2.45A1.51,1.51,0,0,0,211.45,305.91Z"/><path class="cls-5" d="M250.18,308a8.83,8.83,0,0,1-6,2.88h-1.73c-2.16,0-3.64-1.3-3.31-2.88a1.51,1.51,0,0,0-1.37-2.05A2.5,2.5,0,0,0,235.5,308L233,319.59a1.34,1.34,0,0,1-1.3,1.08H223.8a0.85,0.85,0,0,1-.86-1.08l3.24-15.12a1.34,1.34,0,0,1,1.3-1.08h7.92l0.65,0.83a5.76,5.76,0,0,1,3-.83h5.65c2.16,0,3.64,1.3,3.31,2.88a1,1,0,0,0,1.12,1.26,1.8,1.8,0,0,0,1.33-.68Z"/><path class="cls-5" d="M274,317.83a9,9,0,0,1-6,2.84h-3.35a3.71,3.71,0,0,1-3-1.22c-0.4.29-.79,0.58-1,0.68a5.89,5.89,0,0,1-2.52.58h-7.23c-2.16,0-3.64-1.26-3.31-2.88l2.45-11.52c0.32-1.58,2.38-2.88,4.54-2.88h7.23a3.87,3.87,0,0,1,2.59.86l1-.86h7.92a0.86,0.86,0,0,1,.86,1.08L271.78,316a1.07,1.07,0,0,0,1.08,1.37,1.74,1.74,0,0,0,1.37-.72Zm-12-11.88A2.54,2.54,0,0,0,259.8,308l-1.73,8.17a1.49,1.49,0,0,0,1.37,2,2.39,2.39,0,0,0,2.2-1.94L263.4,308A1.52,1.52,0,0,0,262,305.95Z"/><path class="cls-5" d="M284.46,316a1.1,1.1,0,0,0,1.08,1.4,1.74,1.74,0,0,0,1.37-.72l-0.25,1.15a9,9,0,0,1-6,2.84h-3.35c-2.16,0-3.64-1.3-3.31-2.88l3.74-17.64a1.42,1.42,0,0,1,1.33-1.08H287a0.83,0.83,0,0,1,.83,1.08Z"/><path class="cls-5" d="M328.63,317.79a8.83,8.83,0,0,1-6,2.88h-6.3c-2.16,0-2.52-1.15-2.48-3,0-2.66-.76-6.52-2.56-6.52l0.58-2.7h1.48c0.72,0,1.87-.07,2.09-1l0.86-4.21c0.18-.72-0.86-1-1.44-1h-3l-3.64,17.13a1.76,1.76,0,0,1-1.58,1.33h-9.58a1.05,1.05,0,0,1-1-1.33l4-18.93a1.77,1.77,0,0,1,1.58-1.33h22.64c2.63,0,4.43,1.55,3.92,3.92l-0.94,4.36c-0.5,2.38-3,4-5.58,3.92h-0.47a4.63,4.63,0,0,1,2.84,1.4,7.32,7.32,0,0,1,1.4,2.52c0.4,1,.61,2.2,2,2.2a1.74,1.74,0,0,0,1.37-.72Z"/><path class="cls-5" d="M354.94,317.29a1.07,1.07,0,0,0-1.08-.72,1.63,1.63,0,0,0-1.62,1.26c-0.36,1.58-2.38,2.84-4.54,2.84H331.8c-2.16,0-3.64-1.3-3.31-2.88l2.45-11.52c0.32-1.58,2.38-2.88,4.54-2.88h15.91c2.16,0,3.64,1.3,3.31,2.88L354,309.69c-0.36,1.58-2.38,2.88-4.54,2.88h-9.75l-0.76,3.53a1.51,1.51,0,0,0,1.37,2.05,2.5,2.5,0,0,0,2.23-2c0.32-1.58,2.3-2,4.46-2h3.31c2.23,0,4,.32,4.86,2Zm-12.06-11.37a2.5,2.5,0,0,0-2.23,2.05l-0.5,2.45h3.6l0.5-2.45A1.51,1.51,0,0,0,342.88,305.91Z"/><path class="cls-5" d="M381.12,317.83a8.64,8.64,0,0,1-6,2.84h-8.35a4,4,0,0,1-2.38-.68l-1.15,5.44a1.42,1.42,0,0,1-1.33,1.08H354a0.83,0.83,0,0,1-.83-1.08l4.46-20.95a1.34,1.34,0,0,1,1.3-1.08h7.92l0.65,0.83a5.76,5.76,0,0,1,3-.83h7.23c2.16,0,3.64,1.3,3.31,2.88L378.92,316a1.1,1.1,0,0,0,1.08,1.4,1.74,1.74,0,0,0,1.37-.72Zm-12-11.91a2.5,2.5,0,0,0-2.23,2.05l-1.73,8.14a1.51,1.51,0,0,0,1.37,2.05,2.5,2.5,0,0,0,2.23-2.05l1.73-8.14A1.51,1.51,0,0,0,369.17,305.91Z"/><path class="cls-5" d="M407.47,317.83a9,9,0,0,1-6,2.84h-3.35a3.71,3.71,0,0,1-3-1.22c-0.4.29-.79,0.58-1,0.68a5.89,5.89,0,0,1-2.52.58h-7.24c-2.16,0-3.64-1.26-3.31-2.88l2.45-11.52c0.32-1.58,2.38-2.88,4.54-2.88h7.24a3.87,3.87,0,0,1,2.59.86l1-.86h7.92a0.86,0.86,0,0,1,.86,1.08L405.27,316a1.07,1.07,0,0,0,1.08,1.37,1.74,1.74,0,0,0,1.37-.72Zm-12-11.88a2.54,2.54,0,0,0-2.23,2.05l-1.73,8.17a1.5,1.5,0,0,0,1.37,2,2.39,2.39,0,0,0,2.2-1.94l1.76-8.24A1.52,1.52,0,0,0,395.52,305.95Z"/><path class="cls-5" d="M420.14,317.83a9,9,0,0,1-6,2.84h-3.35c-2.16,0-3.64-1.3-3.31-2.88l2.84-13.32a1.34,1.34,0,0,1,1.3-1.08h7.92a0.85,0.85,0,0,1,.86,1.08L417.94,316a1.1,1.1,0,0,0,1.08,1.4,1.74,1.74,0,0,0,1.37-.72Zm0.94-16.56a1.46,1.46,0,0,1-1.33,1.08h-7.92a0.84,0.84,0,0,1-.83-1.08l0.22-1.08a1.41,1.41,0,0,1,1.3-1.08h7.92a0.84,0.84,0,0,1,.86,1.08Z"/><path class="cls-5" d="M447,308a8.83,8.83,0,0,1-6,2.88h-1.73c-2.16,0-3.64-1.3-3.31-2.88a1.51,1.51,0,0,0-1.37-2.05,2.5,2.5,0,0,0-2.23,2.05l-2.48,11.63a1.34,1.34,0,0,1-1.3,1.08h-7.92a0.85,0.85,0,0,1-.86-1.08L423,304.47a1.34,1.34,0,0,1,1.3-1.08h7.92l0.65,0.83a5.76,5.76,0,0,1,3-.83h5.65c2.16,0,3.63,1.3,3.31,2.88a1,1,0,0,0,1.12,1.26,1.8,1.8,0,0,0,1.33-.68Z"/><path class="cls-5" d="M472.45,308a5.47,5.47,0,0,1-4.54,1.55h-4.39c-2.16,0-2.74-.32-3-1.58-0.22-1.08-.61-1.84-1.69-1.84a2.27,2.27,0,0,0-2.2,1.84c-0.25,1.19-.22,2.41,1.15,2.66l7.2,1.33c2.77,0.5,3.85,1.33,3.28,4l-0.4,1.87c-0.4,1.94-2.88,2.88-4.54,2.88H448.11c-1.66,0-3.71-.94-3.31-2.88l0.47-2.16a1.35,1.35,0,0,1,1.3-1.08h7.56c1,0,.9.83,0.76,1.55a1.41,1.41,0,0,0,1.4,1.87,2.3,2.3,0,0,0,2.2-1.87c0.25-1.22.25-2.38-1.15-2.63l-7.2-1.33c-2.77-.5-3.82-1.44-3.28-4l0.4-1.87c0.43-1.94,2.88-2.88,4.54-2.88H466.9c1.66,0,3.71.94,3.31,2.88a1,1,0,0,0,1.12,1.26,1.94,1.94,0,0,0,1.37-.68Z"/></svg>