<svg id="background" xmlns="http://www.w3.org/2000/svg" viewBox="0 0 500 400"><defs><style>.cls-1{fill:#016bb2;stroke-width:2px;}.cls-1,.cls-2{stroke:#fff;}.cls-1,.cls-2,.cls-4{stroke-miterlimit:10;}.cls-2{fill:#1e1e1c;}.cls-3{fill:#f4951b;}.cls-4{fill:none;stroke:#1d1d1b;}.cls-5{fill:#fff;}</style></defs><title>repairs-icon2</title><rect class="cls-1" width="500" height="400"/><path class="cls-2" d="M485.17,175.78c-1.26.26-2.14,0.4-3,.62-10.81,2.74-21.61,5.55-32.45,8.18-1.19.29-3.13,0-3.83-.73-4.87-5.4-9.56-11-14.17-16.6a4.46,4.46,0,0,1-.69-3.34c1.38-6.67,2.83-13.33,4.55-19.92a5.11,5.11,0,0,1,3-2.9c7.17-2.14,14.42-4,21.62-6,4.18-1.17,8.32-2.52,12.48-3.78l0.5-1.5c-3.28-2-6.32-4.65-9.89-5.82-16.63-5.46-33.36-5.79-49.67,2.46a113.22,113.22,0,0,0-16.17,10,64.52,64.52,0,0,1-17.19,9.17L66,146.27a4.47,4.47,0,0,0,.75-0.77l-0.21-.36-0.21-.36a4.45,4.45,0,0,0-1.48.47c-0.36.21-1.15-1-1.75-2.58l0-.9c0.05-1.11,2.86-3.62,3.37-3.91s-0.35-2-1.92-3.76-6.51-5.42-6.8-4.91a16.94,16.94,0,0,1-2.42,2.67l-1,.91c-2.79-.87-4.88-1.92-4.64-2.34a4.75,4.75,0,0,0,.52-1.58l-0.36-.21-0.36-.21a4.65,4.65,0,0,0-1.08,1.21c-0.23.4-1.44-.14-2.68-1.2l-0.39-.76c-0.51-1,.66-4.56,1-5.07s-1.28-1.55-3.51-2.3-8.4-1.44-8.4-.85a16.89,16.89,0,0,1-.75,3.52l-0.41,1.31c-2.91.63-5.28,0.69-5.28,0.13a5.15,5.15,0,0,0-.34-1.76H26.8a5,5,0,0,0-.33,1.72c0,0.53-1.27.72-2.84,0.42l-0.71-.45c-0.94-.6-1.71-4.28-1.71-4.87s-1.92-.69-4.26-0.21S9,122.2,9.32,122.71a16.84,16.84,0,0,1,1.12,3.43l0.3,1.33c-2.18,2-4.23,3.16-4.55,2.61a5.69,5.69,0,0,0-1.25-1.48l-0.36.21L4.23,129a5.5,5.5,0,0,0,.65,1.78c0.31,0.53-.68,1.39-2.2,1.92l-0.85,0c-1.11-.05-3.62-2.85-3.92-3.36s-2,.35-3.77,1.92-5.43,6.49-4.92,6.79a17,17,0,0,1,2.68,2.41l0.9,1c-0.83,2.74-2,4.7-2.61,4.35a6.08,6.08,0,0,0-1.92-.71l-0.21.36-0.21.36A6,6,0,0,0-10.58,147c0.59,0.34.18,1.67-.91,3l-0.78.4c-1,.51-4.57-0.66-5.09-1s-1.55,1.28-2.3,3.5-1.44,8.37-.85,8.37a17,17,0,0,1,3.53.75l1.2,0.37c0.67,2.65.63,4.82-.09,4.82a6.25,6.25,0,0,0-2.06.34V168a0.75,0.75,0,0,0,.75.75h1.31c0.72,0,1.06,1.45.76,3.23l-0.51.79c-0.6.93-4.29,1.7-4.88,1.71s-0.69,1.91-.22,4.25,2.91,7.91,3.42,7.61a17,17,0,0,1,3.44-1.11l1.17-.26c1.85,1.83,2.86,3.61,2.26,4a6.08,6.08,0,0,0-1.58,1.3l0.21,0.36a0.75,0.75,0,0,0,.65.37H-11c0.14-.06.75-0.39,1.37-0.75s1.7,0.82,2.4,2.62l0,1c-0.05,1.11-2.86,3.61-3.37,3.91s0.35,2,1.92,3.76,6.51,5.42,6.8,4.91A16.92,16.92,0,0,1,.5,203.71l0.84-.78c2.42,0.6,4.13,1.54,3.81,2.09a5.66,5.66,0,0,0-.66,1.82L4.85,207a0.74,0.74,0,0,0,.37.1H5.49a8.48,8.48,0,0,0,1-1.42c0.33-.58,1.92,0,3.52,1.23l0.48,0.92c0.51,1-.66,4.56-1,5.07s1.28,1.55,3.51,2.3,8.4,1.44,8.4.85a16.88,16.88,0,0,1,.75-3.52l0.33-1.08c2.34-.69,4.25-0.79,4.25-0.23a4.75,4.75,0,0,0,.17,1.39,1.27,1.27,0,0,0,.58.37l0.37-.17a3,3,0,0,0,.37-1.66c0-.59,1.69-0.85,3.76-0.57l0.89,0.57c0.94,0.6,1.71,4.28,1.71,4.87s1.92,0.69,4.26.22,7.93-2.9,7.63-3.41a16.8,16.8,0,0,1-1.12-3.43l-0.25-1.1c1.7-1.77,3.28-2.88,3.53-2.46A6.27,6.27,0,0,0,49.5,207h0.26a0.75,0.75,0,0,0,.37-0.1l0.36-.21a4.9,4.9,0,0,0-.56-1.62c-0.26-.44,1.1-1.45,3-2.23L54,202.89c1.11,0.05,3.62,2.85,3.92,3.36s2-.35,3.77-1.92,5.43-6.49,4.92-6.79a16.9,16.9,0,0,1-2.68-2.41l-0.8-.86c0.63-2.46,1.45-4.29,1.82-4.08s0.79,0.43.92,0.49H66a0.75,0.75,0,0,0,.65-0.38l0.21-.36a4.57,4.57,0,0,0-1.19-1.07c-0.35-.2.17-1.39,1.17-2.75h6.31l0,0a0.34,0.34,0,0,0,.31,0l316.14-.69V185a44.55,44.55,0,0,1,6.31,3.61c2.32,1.58,4.57,3.27,6.93,4.79,5.1,3.29,10,7,15.42,9.64,10,4.86,20.71,6.57,31.85,2.51a74.16,74.16,0,0,0,24.39-14.15C479.29,187.11,483.52,182.48,485.17,175.78ZM72.64,167.66a0.74,0.74,0,0,0-.74-0.7H71.14c-0.33,0-.46-0.95-0.35-2.25l260.65-.57v2.95Z"/><path class="cls-3" d="M52.58,183.1L50,180.54a23.45,23.45,0,0,0,3.66-12.65A23.72,23.72,0,0,0,9.73,155.6l1.68,1.67,6.3,6.25,1.13,1.12,15.59,15.48a13,13,0,0,1-13.72-3.06l-7.54,7.56A23.71,23.71,0,0,0,42.4,188L45,190.62a27.2,27.2,0,1,1,4.27-41.87l1.62-1.62h0l1.3-1.31,4.62-4.63a37.83,37.83,0,1,0,3.45,49.56ZM42.06,172.66L25.15,155.87A13,13,0,0,1,42.06,172.66Z"/><line class="cls-4" x1="168.42" y1="178.03" x2="164.84" y2="178.03"/><line class="cls-4" x1="376" y1="178.03" x2="372.42" y2="178.03"/><path class="cls-5" d="M78.26,269.78a1.72,1.72,0,0,1-1.58,1.33H66.92c-1.19,0-1.12-1-.9-1.94,0.25-1.3-.32-2.56-1.66-2.56a3.09,3.09,0,0,0-2.7,2.56c-0.4,1.91-.07,3.35,1.84,3.6l8.06,1c3.2,0.4,5.54,1.4,4.72,5.33l-0.5,2.41c-0.5,2.38-3.46,3.6-5.51,3.6H50.61c-2.05,0-4.46-1.22-4-3.6l0.58-2.7a1.72,1.72,0,0,1,1.58-1.33H58.6c1.15,0,1.08,1,.86,1.94-0.25,1.3.32,2.52,1.66,2.52a3,3,0,0,0,2.7-2.52,2.77,2.77,0,0,0-.25-2.34A2.44,2.44,0,0,0,62,275.79l-8.06-1c-3-.36-5.47-1.76-4.72-5.33l0.5-2.41c0.5-2.38,3.46-3.6,5.51-3.6H74.87c2.05,0,4.46,1.22,4,3.6Z"/><path class="cls-5" d="M104.68,281.7a1.08,1.08,0,0,0-1.08-.72,1.63,1.63,0,0,0-1.62,1.26c-0.36,1.58-2.38,2.84-4.54,2.84H81.54c-2.16,0-3.64-1.3-3.31-2.88l2.45-11.52C81,269.1,83,267.8,85.21,267.8h15.91c2.16,0,3.64,1.3,3.31,2.88l-0.72,3.42c-0.36,1.58-2.38,2.88-4.54,2.88H89.42l-0.76,3.53A1.51,1.51,0,0,0,90,282.56a2.5,2.5,0,0,0,2.23-2c0.32-1.58,2.3-2,4.46-2H100c2.23,0,4,.32,4.86,2ZM92.62,270.32a2.5,2.5,0,0,0-2.23,2.05l-0.5,2.45h3.6l0.5-2.45A1.51,1.51,0,0,0,92.62,270.32Z"/><path class="cls-5" d="M131.36,272.37a8.83,8.83,0,0,1-6,2.88h-1.73c-2.16,0-3.64-1.3-3.31-2.88a1.51,1.51,0,0,0-1.37-2.05,2.5,2.5,0,0,0-2.23,2.05L114.19,284a1.34,1.34,0,0,1-1.3,1.08H105a0.85,0.85,0,0,1-.86-1.08l3.24-15.12a1.34,1.34,0,0,1,1.3-1.08h7.92l0.65,0.83a5.76,5.76,0,0,1,3-.83h5.65c2.16,0,3.64,1.3,3.31,2.88a1,1,0,0,0,1.12,1.26,1.8,1.8,0,0,0,1.33-.68Z"/><path class="cls-5" d="M156.7,271.83a1.08,1.08,0,0,0-1.08-.72,2.13,2.13,0,0,0-1.66,1.4L147.16,284a2.2,2.2,0,0,1-1.55,1.08H134.09A1.11,1.11,0,0,1,133,284l-1.76-15.12a1.08,1.08,0,0,1,1.08-1.08h7.92a1.06,1.06,0,0,1,1.08,1.08l0.07,10.76,3.82-9a4.92,4.92,0,0,1,4.54-2.84c1.26,0,2.3,0,2.3,0a5.69,5.69,0,0,1,4.9,2.88Z"/><path class="cls-5" d="M167,282.24a9,9,0,0,1-6,2.84h-3.35c-2.16,0-3.64-1.3-3.31-2.88l2.84-13.32a1.34,1.34,0,0,1,1.3-1.08h7.92a0.85,0.85,0,0,1,.86,1.08L164.8,280.4a1.09,1.09,0,0,0,1.08,1.4,1.74,1.74,0,0,0,1.37-.72Zm0.94-16.56a1.46,1.46,0,0,1-1.33,1.08h-7.92a0.84,0.84,0,0,1-.83-1.08l0.22-1.08a1.41,1.41,0,0,1,1.3-1.08h7.92a0.84,0.84,0,0,1,.86,1.08Z"/><path class="cls-5" d="M193.45,281.66a1.06,1.06,0,0,0-1-.72,1.67,1.67,0,0,0-1.66,1.26c-0.32,1.58-2.38,2.88-4.54,2.88H170.31c-2.16,0-3.64-1.3-3.31-2.88l2.45-11.48c0.32-1.58,2.34-2.88,4.5-2.88h15.95c2.16,0,3.64,1.3,3.31,2.88l-0.36,1.62a1.42,1.42,0,0,1-1.3,1.08h-7.92a0.86,0.86,0,0,1-.86-1.08,1.5,1.5,0,0,0-1.37-2,2.51,2.51,0,0,0-2.23,2l-1.73,8.14a1.51,1.51,0,0,0,1.37,2.05,2.54,2.54,0,0,0,2.23-2c0.32-1.58,2.3-2,4.46-2h3.31c2.23,0,4,.32,4.9,2Z"/><path class="cls-5" d="M205.91,282.24a9,9,0,0,1-6,2.84h-3.35c-2.16,0-3.64-1.3-3.31-2.88l2.84-13.32a1.34,1.34,0,0,1,1.3-1.08h7.92a0.85,0.85,0,0,1,.86,1.08l-2.45,11.52a1.09,1.09,0,0,0,1.08,1.4,1.74,1.74,0,0,0,1.37-.72Zm0.94-16.56a1.46,1.46,0,0,1-1.33,1.08H197.6a0.84,0.84,0,0,1-.83-1.08L197,264.6a1.41,1.41,0,0,1,1.3-1.08h7.92a0.84,0.84,0,0,1,.86,1.08Z"/><path class="cls-5" d="M232.26,282.24a9,9,0,0,1-6,2.84H222.9c-2.16,0-3.64-1.3-3.31-2.88l2.09-9.83a1.51,1.51,0,0,0-1.37-2.05,2.5,2.5,0,0,0-2.23,2.05L215.6,284a1.34,1.34,0,0,1-1.3,1.08h-7.92a0.85,0.85,0,0,1-.86-1.08l3.24-15.12a1.34,1.34,0,0,1,1.3-1.08H218l0.65,0.83a5.76,5.76,0,0,1,3-.83h7.23c2.16,0,3.64,1.3,3.31,2.88l-2.05,9.72a1.1,1.1,0,0,0,1.08,1.4,1.74,1.74,0,0,0,1.37-.72Z"/><path class="cls-5" d="M260.85,271.8a1.09,1.09,0,0,0-1.08-.68,1.84,1.84,0,0,0-1.69,1.37c-1.62,7.6-1,4.68-3.31,15.55-0.4,1.94-2.84,2.88-4.5,2.88H234.32c-1.66,0-3.71-.94-3.31-2.88l0.25-1.08a1.42,1.42,0,0,1,1.3-1.08h7.92a0.86,0.86,0,0,1,.86,1.08A1.52,1.52,0,0,0,242.7,289a2.52,2.52,0,0,0,2.23-2.05l0.79-3.67h-9.79c-1.62,0-3.71-.94-3.28-2.88l2.05-9.72c0.29-1.4,2.34-2.88,4.54-2.88h7.24a4.05,4.05,0,0,1,2.59.83l0.4,0.4a5.51,5.51,0,0,1,3.46-1.22h3.35a5.27,5.27,0,0,1,4.79,2.88Zm-14.18-1.48a2.55,2.55,0,0,0-2.23,2.05l-1.51,7.06a1.53,1.53,0,0,0,1.37,2.05h1.8l1.94-9.11A1.51,1.51,0,0,0,246.66,270.32Z"/><path class="cls-5" d="M294.61,282.24a9,9,0,0,1-6,2.84h-3.35a3.71,3.71,0,0,1-3-1.22c-0.4.29-.79,0.58-1,0.68a5.89,5.89,0,0,1-2.52.58h-7.24c-2.16,0-3.64-1.26-3.31-2.88l2.45-11.52c0.32-1.58,2.38-2.88,4.54-2.88h7.24a3.87,3.87,0,0,1,2.59.86l1-.86H294a0.86,0.86,0,0,1,.86,1.08l-2.45,11.52a1.07,1.07,0,0,0,1.08,1.37,1.74,1.74,0,0,0,1.37-.72Zm-12-11.88a2.54,2.54,0,0,0-2.23,2.05l-1.73,8.17a1.5,1.5,0,0,0,1.37,2,2.39,2.39,0,0,0,2.2-1.94l1.76-8.24A1.52,1.52,0,0,0,282.66,270.36Z"/><path class="cls-5" d="M321,282.24a9,9,0,0,1-6,2.84h-3.35c-2.16,0-3.63-1.3-3.31-2.88l2.09-9.83a1.51,1.51,0,0,0-1.37-2.05,2.5,2.5,0,0,0-2.23,2.05L304.3,284a1.34,1.34,0,0,1-1.3,1.08h-7.92a0.85,0.85,0,0,1-.86-1.08l3.24-15.12a1.34,1.34,0,0,1,1.3-1.08h7.92l0.65,0.83a5.76,5.76,0,0,1,3-.83h7.23c2.16,0,3.64,1.3,3.31,2.88l-2.05,9.72a1.1,1.1,0,0,0,1.08,1.4,1.74,1.74,0,0,0,1.37-.72Z"/><path class="cls-5" d="M345.12,280.4a1,1,0,0,0,1.08,1.33,1.82,1.82,0,0,0,1.37-.68l-0.25,1.12a8.87,8.87,0,0,1-6,2.92H338a3.64,3.64,0,0,1-3-1.3,3.16,3.16,0,0,1-1,.68,6.66,6.66,0,0,1-2.52.61h-7.24c-2.16,0-3.64-1.3-3.31-2.88l2.45-11.52c0.32-1.58,2.38-2.88,4.54-2.88h7.24a4,4,0,0,1,2.38.68l0.83-4a1.42,1.42,0,0,1,1.33-1.08h7.92a0.83,0.83,0,0,1,.83,1.08Zm-9.75-10.08a2.5,2.5,0,0,0-2.23,2.05l-1.73,8.14a1.51,1.51,0,0,0,1.37,2.05,2.43,2.43,0,0,0,2.2-1.94l1.76-8.31A1.48,1.48,0,0,0,335.37,270.32Z"/><path class="cls-5" d="M125.56,302.9a1.76,1.76,0,0,1-1.62,1.37H114A1.08,1.08,0,0,1,113,302.9l0-.14c0.29-1.4-.47-2.56-1.73-2.56a3.15,3.15,0,0,0-2.77,2.56L106.34,313A1.85,1.85,0,0,0,108,315.5a3.15,3.15,0,0,0,2.81-2.52l0.79-3.78h-2.27l0.58-2.7h13.5a1.08,1.08,0,0,1,1.08,1.37l-2,9.43a1.76,1.76,0,0,1-1.62,1.37H97.41c-2.7,0-4.54-1.62-4.14-3.6l3.06-14.4c0.43-2,3-3.6,5.65-3.6h19.94c2.7,0,4.54,1.62,4.1,3.6Z"/><path class="cls-5" d="M151.88,315.29a1.08,1.08,0,0,0-1.08-.72,1.63,1.63,0,0,0-1.62,1.26c-0.36,1.58-2.38,2.84-4.54,2.84H128.73c-2.16,0-3.64-1.3-3.31-2.88l2.45-11.52c0.32-1.58,2.38-2.88,4.54-2.88h15.91c2.16,0,3.64,1.3,3.31,2.88l-0.72,3.42c-0.36,1.58-2.38,2.88-4.54,2.88h-9.75l-0.76,3.53a1.51,1.51,0,0,0,1.37,2.05,2.5,2.5,0,0,0,2.23-2c0.32-1.58,2.3-2,4.46-2h3.31c2.23,0,4,.32,4.86,2Zm-12.06-11.37a2.5,2.5,0,0,0-2.23,2.05l-0.5,2.45h3.6l0.5-2.45A1.51,1.51,0,0,0,139.82,303.91Z"/><path class="cls-5" d="M178,315.83a9,9,0,0,1-6,2.84h-3.35c-2.16,0-3.64-1.3-3.31-2.88l2.09-9.83a1.51,1.51,0,0,0-1.37-2.05,2.5,2.5,0,0,0-2.23,2.05l-2.48,11.63a1.34,1.34,0,0,1-1.3,1.08h-7.92a0.85,0.85,0,0,1-.86-1.08l3.24-15.12a1.34,1.34,0,0,1,1.3-1.08h7.92l0.65,0.83a5.76,5.76,0,0,1,3-.83h7.24c2.16,0,3.64,1.3,3.31,2.88L175.85,314a1.09,1.09,0,0,0,1.08,1.4,1.74,1.74,0,0,0,1.37-.72Z"/><path class="cls-5" d="M204.51,315.29a1.08,1.08,0,0,0-1.08-.72,1.63,1.63,0,0,0-1.62,1.26c-0.36,1.58-2.38,2.84-4.54,2.84H181.36c-2.16,0-3.64-1.3-3.31-2.88l2.45-11.52c0.32-1.58,2.38-2.88,4.54-2.88h15.91c2.16,0,3.64,1.3,3.31,2.88l-0.72,3.42c-0.36,1.58-2.38,2.88-4.54,2.88h-9.75l-0.76,3.53a1.51,1.51,0,0,0,1.37,2.05,2.5,2.5,0,0,0,2.23-2c0.32-1.58,2.3-2,4.46-2h3.31c2.23,0,4,.32,4.86,2Zm-12.06-11.37a2.5,2.5,0,0,0-2.23,2.05l-0.5,2.45h3.6l0.5-2.45A1.51,1.51,0,0,0,192.45,303.91Z"/><path class="cls-5" d="M231.18,306a8.83,8.83,0,0,1-6,2.88h-1.73c-2.16,0-3.64-1.3-3.31-2.88a1.51,1.51,0,0,0-1.37-2.05A2.5,2.5,0,0,0,216.5,306L214,317.59a1.34,1.34,0,0,1-1.3,1.08H204.8a0.85,0.85,0,0,1-.86-1.08l3.24-15.12a1.34,1.34,0,0,1,1.3-1.08h7.92l0.65,0.83a5.76,5.76,0,0,1,3-.83h5.65c2.16,0,3.64,1.3,3.31,2.88a1,1,0,0,0,1.12,1.26,1.8,1.8,0,0,0,1.33-.68Z"/><path class="cls-5" d="M255,315.83a9,9,0,0,1-6,2.84h-3.35a3.71,3.71,0,0,1-3-1.22c-0.4.29-.79,0.58-1,0.68a5.89,5.89,0,0,1-2.52.58h-7.23c-2.16,0-3.64-1.26-3.31-2.88l2.45-11.52c0.32-1.58,2.38-2.88,4.54-2.88h7.23a3.87,3.87,0,0,1,2.59.86l1-.86h7.92a0.86,0.86,0,0,1,.86,1.08L252.78,314a1.07,1.07,0,0,0,1.08,1.37,1.74,1.74,0,0,0,1.37-.72Zm-12-11.88A2.54,2.54,0,0,0,240.8,306l-1.73,8.17a1.49,1.49,0,0,0,1.37,2,2.39,2.39,0,0,0,2.2-1.94L244.4,306A1.52,1.52,0,0,0,243,303.95Z"/><path class="cls-5" d="M265.46,314a1.1,1.1,0,0,0,1.08,1.4,1.74,1.74,0,0,0,1.37-.72l-0.25,1.15a9,9,0,0,1-6,2.84h-3.35c-2.16,0-3.64-1.3-3.31-2.88l3.74-17.64a1.42,1.42,0,0,1,1.33-1.08H268a0.83,0.83,0,0,1,.83,1.08Z"/><path class="cls-5" d="M309.63,315.79a8.83,8.83,0,0,1-6,2.88h-6.3c-2.16,0-2.52-1.15-2.48-3,0-2.66-.76-6.52-2.56-6.52l0.58-2.7h1.48c0.72,0,1.87-.07,2.09-1l0.86-4.21c0.18-.72-0.86-1-1.44-1h-3l-3.64,17.13a1.76,1.76,0,0,1-1.58,1.33h-9.58a1.05,1.05,0,0,1-1-1.33l4-18.93a1.77,1.77,0,0,1,1.58-1.33h22.64c2.63,0,4.43,1.55,3.92,3.92l-0.94,4.36c-0.5,2.38-3,4-5.58,3.92h-0.47a4.63,4.63,0,0,1,2.84,1.4,7.32,7.32,0,0,1,1.4,2.52c0.4,1,.61,2.2,2,2.2a1.74,1.74,0,0,0,1.37-.72Z"/><path class="cls-5" d="M335.94,315.29a1.07,1.07,0,0,0-1.08-.72,1.63,1.63,0,0,0-1.62,1.26c-0.36,1.58-2.38,2.84-4.54,2.84H312.8c-2.16,0-3.64-1.3-3.31-2.88l2.45-11.52c0.32-1.58,2.38-2.88,4.54-2.88h15.91c2.16,0,3.64,1.3,3.31,2.88L335,307.69c-0.36,1.58-2.38,2.88-4.54,2.88h-9.75l-0.76,3.53a1.51,1.51,0,0,0,1.37,2.05,2.5,2.5,0,0,0,2.23-2c0.32-1.58,2.3-2,4.46-2h3.31c2.23,0,4,.32,4.86,2Zm-12.06-11.37a2.5,2.5,0,0,0-2.23,2.05l-0.5,2.45h3.6l0.5-2.45A1.51,1.51,0,0,0,323.88,303.91Z"/><path class="cls-5" d="M362.12,315.83a8.64,8.64,0,0,1-6,2.84h-8.35a4,4,0,0,1-2.38-.68l-1.15,5.44a1.42,1.42,0,0,1-1.33,1.08H335a0.83,0.83,0,0,1-.83-1.08l4.46-20.95a1.34,1.34,0,0,1,1.3-1.08h7.92l0.65,0.83a5.76,5.76,0,0,1,3-.83h7.23c2.16,0,3.64,1.3,3.31,2.88L359.92,314a1.1,1.1,0,0,0,1.08,1.4,1.74,1.74,0,0,0,1.37-.72Zm-12-11.91a2.5,2.5,0,0,0-2.23,2.05l-1.73,8.14a1.51,1.51,0,0,0,1.37,2.05,2.5,2.5,0,0,0,2.23-2.05l1.73-8.14A1.51,1.51,0,0,0,350.17,303.91Z"/><path class="cls-5" d="M388.47,315.83a9,9,0,0,1-6,2.84h-3.35a3.71,3.71,0,0,1-3-1.22c-0.4.29-.79,0.58-1,0.68a5.89,5.89,0,0,1-2.52.58h-7.24c-2.16,0-3.64-1.26-3.31-2.88l2.45-11.52c0.32-1.58,2.38-2.88,4.54-2.88h7.24a3.87,3.87,0,0,1,2.59.86l1-.86h7.92a0.86,0.86,0,0,1,.86,1.08L386.27,314a1.07,1.07,0,0,0,1.08,1.37,1.74,1.74,0,0,0,1.37-.72Zm-12-11.88a2.54,2.54,0,0,0-2.23,2.05l-1.73,8.17a1.5,1.5,0,0,0,1.37,2,2.39,2.39,0,0,0,2.2-1.94l1.76-8.24A1.52,1.52,0,0,0,376.52,303.95Z"/><path class="cls-5" d="M401.14,315.83a9,9,0,0,1-6,2.84h-3.35c-2.16,0-3.64-1.3-3.31-2.88l2.84-13.32a1.34,1.34,0,0,1,1.3-1.08h7.92a0.85,0.85,0,0,1,.86,1.08L398.94,314a1.1,1.1,0,0,0,1.08,1.4,1.74,1.74,0,0,0,1.37-.72Zm0.94-16.56a1.46,1.46,0,0,1-1.33,1.08h-7.92a0.84,0.84,0,0,1-.83-1.08l0.22-1.08a1.41,1.41,0,0,1,1.3-1.08h7.92a0.84,0.84,0,0,1,.86,1.08Z"/><path class="cls-5" d="M428,306a8.83,8.83,0,0,1-6,2.88h-1.73c-2.16,0-3.64-1.3-3.31-2.88a1.51,1.51,0,0,0-1.37-2.05,2.5,2.5,0,0,0-2.23,2.05l-2.48,11.63a1.34,1.34,0,0,1-1.3,1.08h-7.92a0.85,0.85,0,0,1-.86-1.08L404,302.47a1.34,1.34,0,0,1,1.3-1.08h7.92l0.65,0.83a5.76,5.76,0,0,1,3-.83h5.65c2.16,0,3.63,1.3,3.31,2.88a1,1,0,0,0,1.12,1.26,1.8,1.8,0,0,0,1.33-.68Z"/><path class="cls-5" d="M453.45,306a5.47,5.47,0,0,1-4.54,1.55h-4.39c-2.16,0-2.74-.32-3-1.58-0.22-1.08-.61-1.84-1.69-1.84a2.27,2.27,0,0,0-2.2,1.84c-0.25,1.19-.22,2.41,1.15,2.66l7.2,1.33c2.77,0.5,3.85,1.33,3.28,4l-0.4,1.87c-0.4,1.94-2.88,2.88-4.54,2.88H429.11c-1.66,0-3.71-.94-3.31-2.88l0.47-2.16a1.35,1.35,0,0,1,1.3-1.08h7.56c1,0,.9.83,0.76,1.55a1.41,1.41,0,0,0,1.4,1.87,2.3,2.3,0,0,0,2.2-1.87c0.25-1.22.25-2.38-1.15-2.63l-7.2-1.33c-2.77-.5-3.82-1.44-3.28-4l0.4-1.87c0.43-1.94,2.88-2.88,4.54-2.88H447.9c1.66,0,3.71.94,3.31,2.88a1,1,0,0,0,1.12,1.26,1.94,1.94,0,0,0,1.37-.68Z"/></svg>