<svg id="background" xmlns="http://www.w3.org/2000/svg" viewBox="0 0 500 400"><defs><style>.cls-1{fill:#016bb2;stroke-width:2px;}.cls-1,.cls-2{stroke:#fff;}.cls-1,.cls-2,.cls-4{stroke-miterlimit:10;}.cls-2{fill:#1e1e1c;}.cls-3{fill:#f4951b;}.cls-4{fill:none;stroke:#1d1d1b;}.cls-5{fill:#fff;}</style></defs><title>repairs-icon</title><rect class="cls-1" width="500" height="400"/><path class="cls-2" d="M486.23,249.31c-1.14.24-1.95,0.37-2.73,0.57-9.84,2.5-19.66,5.06-29.52,7.46-1.08.26-2.84,0-3.48-.67-4.43-4.93-8.7-10-12.89-15.14a4.08,4.08,0,0,1-.63-3c1.25-6.08,2.58-12.16,4.14-18.17a4.65,4.65,0,0,1,2.77-2.64c6.52-2,13.12-3.62,19.67-5.47,3.81-1.07,7.57-2.29,11.36-3.45l0.45-1.37c-3-1.81-5.75-4.24-9-5.31-15.13-5-30.35-5.28-45.18,2.24a103,103,0,0,0-14.71,9.09,58.65,58.65,0,0,1-15.64,8.36l-286,.62a4.08,4.08,0,0,0,.68-0.7l-0.19-.33-0.19-.33a4,4,0,0,0-1.34.43c-0.33.19-1-.87-1.59-2.36l0-.82c0-1,2.6-3.3,3.06-3.57s-0.32-1.81-1.75-3.43-5.92-4.94-6.19-4.48a15.43,15.43,0,0,1-2.2,2.44l-0.9.83c-2.54-.79-4.43-1.75-4.22-2.13a4.34,4.34,0,0,0,.47-1.44l-0.33-.19-0.33-.19a4.24,4.24,0,0,0-1,1.11c-0.21.37-1.31-.13-2.44-1.1l-0.36-.7c-0.46-.9.6-4.16,0.87-4.63s-1.17-1.41-3.19-2.09-7.64-1.31-7.64-.78a15.44,15.44,0,0,1-.69,3.21l-0.37,1.2c-2.64.57-4.81,0.63-4.81,0.12a4.71,4.71,0,0,0-.31-1.6H69.25a4.6,4.6,0,0,0-.3,1.57c0,0.49-1.16.66-2.58,0.38l-0.64-.41c-0.85-.55-1.56-3.9-1.56-4.44s-1.75-.63-3.88-0.2-7.21,2.64-6.94,3.11a15.39,15.39,0,0,1,1,3.13l0.28,1.21c-2,1.81-3.85,2.88-4.14,2.38a5.19,5.19,0,0,0-1.14-1.35l-0.33.19-0.33.19a5,5,0,0,0,.59,1.62c0.28,0.48-.62,1.27-2,1.75l-0.77,0c-1,0-3.3-2.6-3.57-3.07s-1.81.32-3.43,1.75-4.94,5.92-4.48,6.19a15.46,15.46,0,0,1,2.44,2.2L38.32,218c-0.76,2.5-1.82,4.28-2.37,4a5.52,5.52,0,0,0-1.74-.65l-0.19.33-0.19.33a5.43,5.43,0,0,0,1.42,1.16c0.54,0.31.17,1.52-.83,2.69l-0.71.37c-0.9.46-4.16-.61-4.63-0.87s-1.41,1.17-2.09,3.19-1.31,7.64-.78,7.64a15.4,15.4,0,0,1,3.21.69l1.1,0.34c0.61,2.42.57,4.4-.08,4.4a5.68,5.68,0,0,0-1.87.31v0.38a0.68,0.68,0,0,0,.68.68h1.19c0.65,0,1,1.32.69,2.95l-0.46.72c-0.55.85-3.9,1.55-4.44,1.56s-0.63,1.75-.2,3.88,2.65,7.21,3.11,6.94a15.44,15.44,0,0,1,3.13-1l1.06-.24C35,259.35,36,261,35.4,261.29A5.54,5.54,0,0,0,34,262.48l0.19,0.33a0.68,0.68,0,0,0,.59.34h0.12c0.12-.05.68-0.36,1.25-0.69s1.54,0.75,2.18,2.39l0,0.9c0,1-2.6,3.3-3.07,3.57s0.32,1.81,1.75,3.43,5.92,4.94,6.19,4.48a15.42,15.42,0,0,1,2.2-2.44l0.77-.71c2.2,0.54,3.76,1.4,3.47,1.91a5.17,5.17,0,0,0-.6,1.66l0.33,0.19a0.67,0.67,0,0,0,.34.09h0.24a7.73,7.73,0,0,0,.9-1.3c0.3-.53,1.74,0,3.21,1.12l0.43,0.84c0.46,0.9-.6,4.16-0.87,4.63s1.17,1.41,3.19,2.09,7.64,1.31,7.64.78a15.43,15.43,0,0,1,.69-3.21l0.3-1c2.12-.63,3.86-0.72,3.87-0.21a4.34,4.34,0,0,0,.16,1.27,1.15,1.15,0,0,0,.53.34l0.34-.15a2.78,2.78,0,0,0,.34-1.51c0-.54,1.54-0.77,3.42-0.52l0.81,0.52c0.85,0.55,1.56,3.9,1.56,4.44s1.75,0.63,3.88.2,7.21-2.65,6.94-3.11a15.35,15.35,0,0,1-1-3.13l-0.23-1c1.54-1.62,3-2.63,3.21-2.25a5.72,5.72,0,0,0,.76,1h0.24a0.68,0.68,0,0,0,.34-0.09l0.33-.19A4.47,4.47,0,0,0,90.3,276c-0.24-.4,1-1.32,2.74-2l1,0c1,0,3.3,2.6,3.57,3.06s1.81-.32,3.43-1.75,4.94-5.92,4.48-6.19A15.38,15.38,0,0,1,103,267l-0.73-.78c0.57-2.24,1.32-3.92,1.66-3.72s0.72,0.39.84,0.44h0.12a0.68,0.68,0,0,0,.59-0.34l0.19-.33a4.17,4.17,0,0,0-1.09-1c-0.32-.18.16-1.27,1.06-2.51h5.74l0,0a0.31,0.31,0,0,0,.28,0l287.6-.63v-0.43a40.5,40.5,0,0,1,5.74,3.29c2.11,1.45,4.16,3,6.3,4.37,4.64,3,9.08,6.39,14,8.79,9.14,4.43,18.84,6,29,2.29a67.42,67.42,0,0,0,22.19-12.91C480.89,259.65,484.73,255.43,486.23,249.31ZM111,241.91a0.68,0.68,0,0,0-.67-0.64h-0.69c-0.3,0-.41-0.86-0.32-2.05l237.11-.52v2.69Z"/><path class="cls-3" d="M92.7,256l-2.35-2.34a21.56,21.56,0,1,0-36.63-22.74l1.53,1.52,5.73,5.7,1,1,14.18,14.12a11.82,11.82,0,0,1-12.48-2.79l-6.86,6.89a21.52,21.52,0,0,0,26.6,3.13l2.35,2.34a24.81,24.81,0,1,1,3.88-38.19l1.47-1.48h0L92.35,222l4.2-4.22A34.55,34.55,0,1,0,99.7,263Zm-9.56-9.52L67.76,231.16A11.83,11.83,0,0,1,83.14,246.47Z"/><line class="cls-4" x1="168.42" y1="178.03" x2="164.84" y2="178.03"/><line class="cls-4" x1="376" y1="178.03" x2="372.42" y2="178.03"/><path class="cls-5" d="M108.84,88.28a1.72,1.72,0,0,1-1.58,1.33H97.5c-1.19,0-1.12-1-.9-1.94,0.25-1.3-.32-2.56-1.66-2.56a3.09,3.09,0,0,0-2.7,2.56c-0.4,1.91-.07,3.35,1.84,3.6l8.06,1c3.2,0.4,5.54,1.4,4.72,5.33l-0.5,2.41c-0.5,2.38-3.46,3.6-5.51,3.6H81.2c-2.05,0-4.46-1.22-4-3.6l0.58-2.7a1.72,1.72,0,0,1,1.58-1.33h9.79c1.15,0,1.08,1,.86,1.94-0.25,1.3.32,2.52,1.66,2.52a3,3,0,0,0,2.7-2.52,2.77,2.77,0,0,0-.25-2.34,2.44,2.44,0,0,0-1.58-1.26l-8.06-1C81.56,93,79,91.55,79.79,88l0.5-2.41c0.5-2.38,3.46-3.6,5.51-3.6h19.65c2.05,0,4.46,1.22,4,3.6Z"/><path class="cls-5" d="M135.27,100.19a1.08,1.08,0,0,0-1.08-.72,1.63,1.63,0,0,0-1.62,1.26c-0.36,1.58-2.38,2.84-4.54,2.84H112.12c-2.16,0-3.64-1.3-3.31-2.88l2.45-11.52c0.32-1.58,2.38-2.88,4.54-2.88H131.7c2.16,0,3.64,1.3,3.31,2.88L134.3,92.6c-0.36,1.58-2.38,2.88-4.54,2.88H120L119.25,99a1.51,1.51,0,0,0,1.37,2.05,2.5,2.5,0,0,0,2.23-2c0.32-1.58,2.3-2,4.46-2h3.31c2.23,0,4,.32,4.86,2ZM123.21,88.82A2.5,2.5,0,0,0,121,90.87l-0.5,2.45h3.6l0.5-2.45A1.51,1.51,0,0,0,123.21,88.82Z"/><path class="cls-5" d="M161.94,90.87a8.83,8.83,0,0,1-6,2.88h-1.73c-2.16,0-3.64-1.3-3.31-2.88a1.51,1.51,0,0,0-1.37-2.05,2.5,2.5,0,0,0-2.23,2.05l-2.48,11.63a1.34,1.34,0,0,1-1.3,1.08h-7.92a0.85,0.85,0,0,1-.86-1.08l3.24-15.12a1.34,1.34,0,0,1,1.3-1.08h7.92l0.65,0.83a5.76,5.76,0,0,1,3-.83h5.65c2.16,0,3.64,1.3,3.31,2.88a1,1,0,0,0,1.12,1.26,1.8,1.8,0,0,0,1.33-.68Z"/><path class="cls-5" d="M187.29,90.33a1.08,1.08,0,0,0-1.08-.72,2.13,2.13,0,0,0-1.66,1.4l-6.8,11.48a2.2,2.2,0,0,1-1.55,1.08H164.68a1.11,1.11,0,0,1-1.08-1.08l-1.76-15.12a1.08,1.08,0,0,1,1.08-1.08h7.92a1.06,1.06,0,0,1,1.08,1.08L172,98.14l3.82-9a4.92,4.92,0,0,1,4.54-2.84c1.26,0,2.3,0,2.3,0a5.69,5.69,0,0,1,4.9,2.88Z"/><path class="cls-5" d="M197.58,100.73a9,9,0,0,1-6,2.84h-3.35c-2.16,0-3.64-1.3-3.31-2.88l2.84-13.32a1.34,1.34,0,0,1,1.3-1.08H197a0.85,0.85,0,0,1,.86,1.08L195.39,98.9a1.09,1.09,0,0,0,1.08,1.4,1.74,1.74,0,0,0,1.37-.72Zm0.94-16.56a1.46,1.46,0,0,1-1.33,1.08h-7.92a0.84,0.84,0,0,1-.83-1.08l0.22-1.08A1.41,1.41,0,0,1,190,82h7.92a0.84,0.84,0,0,1,.86,1.08Z"/><path class="cls-5" d="M224,100.16a1.06,1.06,0,0,0-1-.72,1.67,1.67,0,0,0-1.66,1.26c-0.32,1.58-2.38,2.88-4.54,2.88H200.9c-2.16,0-3.64-1.3-3.31-2.88L200,89.21c0.32-1.58,2.34-2.88,4.5-2.88h15.95c2.16,0,3.64,1.3,3.31,2.88l-0.36,1.62a1.42,1.42,0,0,1-1.3,1.08h-7.92a0.86,0.86,0,0,1-.86-1.08,1.5,1.5,0,0,0-1.37-2,2.51,2.51,0,0,0-2.23,2L208,99a1.51,1.51,0,0,0,1.37,2.05,2.54,2.54,0,0,0,2.23-2c0.32-1.58,2.3-2,4.46-2h3.31c2.23,0,4,.32,4.9,2Z"/><path class="cls-5" d="M236.5,100.73a9,9,0,0,1-6,2.84h-3.35c-2.16,0-3.64-1.3-3.31-2.88l2.84-13.32A1.34,1.34,0,0,1,228,86.3h7.92a0.85,0.85,0,0,1,.86,1.08L234.3,98.9a1.09,1.09,0,0,0,1.08,1.4,1.74,1.74,0,0,0,1.37-.72Zm0.94-16.56a1.46,1.46,0,0,1-1.33,1.08h-7.92a0.84,0.84,0,0,1-.83-1.08l0.22-1.08a1.41,1.41,0,0,1,1.3-1.08h7.92a0.84,0.84,0,0,1,.86,1.08Z"/><path class="cls-5" d="M262.85,100.73a9,9,0,0,1-6,2.84h-3.35c-2.16,0-3.64-1.3-3.31-2.88l2.09-9.83a1.51,1.51,0,0,0-1.37-2.05,2.5,2.5,0,0,0-2.23,2.05l-2.48,11.63a1.34,1.34,0,0,1-1.3,1.08H237a0.85,0.85,0,0,1-.86-1.08l3.24-15.12a1.34,1.34,0,0,1,1.3-1.08h7.92l0.65,0.83a5.76,5.76,0,0,1,3-.83h7.23c2.16,0,3.64,1.3,3.31,2.88l-2.05,9.72a1.1,1.1,0,0,0,1.08,1.4,1.74,1.74,0,0,0,1.37-.72Z"/><path class="cls-5" d="M291.43,90.29a1.09,1.09,0,0,0-1.08-.68A1.84,1.84,0,0,0,288.66,91c-1.62,7.6-1,4.68-3.31,15.55-0.4,1.94-2.84,2.88-4.5,2.88H264.9c-1.66,0-3.71-.94-3.31-2.88l0.25-1.08a1.42,1.42,0,0,1,1.3-1.08h7.92a0.86,0.86,0,0,1,.86,1.08,1.52,1.52,0,0,0,1.37,2.05,2.52,2.52,0,0,0,2.23-2.05l0.79-3.67h-9.79c-1.62,0-3.71-.94-3.28-2.88l2.05-9.72c0.29-1.4,2.34-2.88,4.54-2.88h7.24a4.05,4.05,0,0,1,2.59.83l0.4,0.4a5.51,5.51,0,0,1,3.46-1.22h3.35a5.27,5.27,0,0,1,4.79,2.88Zm-14.18-1.48A2.55,2.55,0,0,0,275,90.87l-1.51,7.06a1.53,1.53,0,0,0,1.37,2.05h1.8l1.94-9.11A1.51,1.51,0,0,0,277.25,88.82Z"/><path class="cls-5" d="M325.2,100.73a9,9,0,0,1-6,2.84h-3.35a3.71,3.71,0,0,1-3-1.22c-0.4.29-.79,0.58-1,0.68a5.89,5.89,0,0,1-2.52.58h-7.24c-2.16,0-3.64-1.26-3.31-2.88l2.45-11.52c0.32-1.58,2.38-2.88,4.54-2.88h7.24a3.87,3.87,0,0,1,2.59.86l1-.86h7.92a0.86,0.86,0,0,1,.86,1.08L323,98.93a1.07,1.07,0,0,0,1.08,1.37,1.74,1.74,0,0,0,1.37-.72Zm-12-11.88A2.54,2.54,0,0,0,311,90.91l-1.73,8.17a1.5,1.5,0,0,0,1.37,2,2.39,2.39,0,0,0,2.2-1.94l1.76-8.24A1.52,1.52,0,0,0,313.25,88.85Z"/><path class="cls-5" d="M351.55,100.73a9,9,0,0,1-6,2.84h-3.35c-2.16,0-3.63-1.3-3.31-2.88L341,90.87a1.51,1.51,0,0,0-1.37-2.05,2.5,2.5,0,0,0-2.23,2.05l-2.48,11.63a1.34,1.34,0,0,1-1.3,1.08h-7.92a0.85,0.85,0,0,1-.86-1.08L328,87.38a1.34,1.34,0,0,1,1.3-1.08h7.92l0.65,0.83a5.76,5.76,0,0,1,3-.83h7.23c2.16,0,3.64,1.3,3.31,2.88l-2.05,9.72a1.1,1.1,0,0,0,1.08,1.4,1.74,1.74,0,0,0,1.37-.72Z"/><path class="cls-5" d="M375.71,98.9a1,1,0,0,0,1.08,1.33,1.82,1.82,0,0,0,1.37-.68l-0.25,1.12a8.87,8.87,0,0,1-6,2.92h-3.35a3.64,3.64,0,0,1-3-1.3,3.16,3.16,0,0,1-1,.68,6.66,6.66,0,0,1-2.52.61h-7.24c-2.16,0-3.64-1.3-3.31-2.88L354,89.18c0.32-1.58,2.38-2.88,4.54-2.88h7.24a4,4,0,0,1,2.38.68L369,83a1.42,1.42,0,0,1,1.33-1.08h7.92a0.83,0.83,0,0,1,.83,1.08ZM366,88.82a2.5,2.5,0,0,0-2.23,2.05L362,99a1.51,1.51,0,0,0,1.37,2.05,2.43,2.43,0,0,0,2.2-1.94l1.76-8.31A1.48,1.48,0,0,0,366,88.82Z"/><path class="cls-5" d="M109.53,127.81a1.76,1.76,0,0,1-1.62,1.37H98a1.08,1.08,0,0,1-1.08-1.37l0-.14c0.29-1.4-.47-2.56-1.73-2.56a3.15,3.15,0,0,0-2.77,2.56l-2.16,10.22A1.85,1.85,0,0,0,92,140.41a3.15,3.15,0,0,0,2.81-2.52l0.79-3.78H93.33l0.58-2.7h13.5a1.08,1.08,0,0,1,1.08,1.37l-2,9.43a1.76,1.76,0,0,1-1.62,1.37H81.38c-2.7,0-4.54-1.62-4.14-3.6l3.06-14.4c0.43-2,3-3.6,5.65-3.6h19.94c2.7,0,4.54,1.62,4.1,3.6Z"/><path class="cls-5" d="M135.84,140.19a1.08,1.08,0,0,0-1.08-.72,1.63,1.63,0,0,0-1.62,1.26c-0.36,1.58-2.38,2.84-4.54,2.84H112.7c-2.16,0-3.64-1.3-3.31-2.88l2.45-11.52c0.32-1.58,2.38-2.88,4.54-2.88h15.91c2.16,0,3.64,1.3,3.31,2.88l-0.72,3.42c-0.36,1.58-2.38,2.88-4.54,2.88h-9.75L119.83,139a1.51,1.51,0,0,0,1.37,2.05,2.5,2.5,0,0,0,2.23-2c0.32-1.58,2.3-2,4.46-2h3.31c2.23,0,4,.32,4.86,2Zm-12.06-11.37a2.5,2.5,0,0,0-2.23,2.05l-0.5,2.45h3.6l0.5-2.45A1.51,1.51,0,0,0,123.78,128.82Z"/><path class="cls-5" d="M162,140.73a9,9,0,0,1-6,2.84h-3.35c-2.16,0-3.64-1.3-3.31-2.88l2.09-9.83a1.51,1.51,0,0,0-1.37-2.05,2.5,2.5,0,0,0-2.23,2.05l-2.48,11.63a1.34,1.34,0,0,1-1.3,1.08h-7.92a0.85,0.85,0,0,1-.86-1.08l3.24-15.12a1.34,1.34,0,0,1,1.3-1.08h7.92l0.65,0.83a5.76,5.76,0,0,1,3-.83h7.24c2.16,0,3.64,1.3,3.31,2.88l-2.05,9.72a1.09,1.09,0,0,0,1.08,1.4,1.74,1.74,0,0,0,1.37-.72Z"/><path class="cls-5" d="M188.47,140.19a1.08,1.08,0,0,0-1.08-.72,1.63,1.63,0,0,0-1.62,1.26c-0.36,1.58-2.38,2.84-4.54,2.84H165.33c-2.16,0-3.64-1.3-3.31-2.88l2.45-11.52c0.32-1.58,2.38-2.88,4.54-2.88h15.91c2.16,0,3.64,1.3,3.31,2.88l-0.72,3.42c-0.36,1.58-2.38,2.88-4.54,2.88h-9.75L172.46,139a1.51,1.51,0,0,0,1.37,2.05,2.5,2.5,0,0,0,2.23-2c0.32-1.58,2.3-2,4.46-2h3.31c2.23,0,4,.32,4.86,2Zm-12.06-11.37a2.5,2.5,0,0,0-2.23,2.05l-0.5,2.45h3.6l0.5-2.45A1.51,1.51,0,0,0,176.42,128.82Z"/><path class="cls-5" d="M215.15,130.87a8.83,8.83,0,0,1-6,2.88h-1.73c-2.16,0-3.64-1.3-3.31-2.88a1.51,1.51,0,0,0-1.37-2.05,2.5,2.5,0,0,0-2.23,2.05L198,142.5a1.34,1.34,0,0,1-1.3,1.08h-7.92a0.85,0.85,0,0,1-.86-1.08l3.24-15.12a1.34,1.34,0,0,1,1.3-1.08h7.92l0.65,0.83a5.76,5.76,0,0,1,3-.83h5.65c2.16,0,3.64,1.3,3.31,2.88a1,1,0,0,0,1.12,1.26,1.8,1.8,0,0,0,1.33-.68Z"/><path class="cls-5" d="M238.95,140.73a9,9,0,0,1-6,2.84h-3.35a3.71,3.71,0,0,1-3-1.22c-0.4.29-.79,0.58-1,0.68a5.89,5.89,0,0,1-2.52.58h-7.23c-2.16,0-3.64-1.26-3.31-2.88L215,129.21c0.32-1.58,2.38-2.88,4.54-2.88h7.23a3.87,3.87,0,0,1,2.59.86l1-.86h7.92a0.86,0.86,0,0,1,.86,1.08l-2.45,11.52a1.07,1.07,0,0,0,1.08,1.37,1.74,1.74,0,0,0,1.37-.72Zm-12-11.88a2.54,2.54,0,0,0-2.23,2.05L223,139.08a1.49,1.49,0,0,0,1.37,2,2.39,2.39,0,0,0,2.2-1.94l1.76-8.24A1.52,1.52,0,0,0,227,128.85Z"/><path class="cls-5" d="M249.42,138.9a1.1,1.1,0,0,0,1.08,1.4,1.74,1.74,0,0,0,1.37-.72l-0.25,1.15a9,9,0,0,1-6,2.84h-3.35c-2.16,0-3.64-1.3-3.31-2.88l3.74-17.64A1.42,1.42,0,0,1,244,122h7.92a0.83,0.83,0,0,1,.83,1.08Z"/><path class="cls-5" d="M293.59,140.7a8.83,8.83,0,0,1-6,2.88h-6.3c-2.16,0-2.52-1.15-2.48-3,0-2.66-.76-6.52-2.56-6.52l0.58-2.7h1.48c0.72,0,1.87-.07,2.09-1l0.86-4.21c0.18-.72-0.86-1-1.44-1h-3l-3.64,17.13a1.76,1.76,0,0,1-1.58,1.33H262a1.05,1.05,0,0,1-1-1.33l4-18.93a1.77,1.77,0,0,1,1.58-1.33h22.64c2.63,0,4.43,1.55,3.92,3.92l-0.94,4.36c-0.5,2.38-3,4-5.58,3.92h-0.47a4.63,4.63,0,0,1,2.84,1.4,7.32,7.32,0,0,1,1.4,2.52c0.4,1,.61,2.2,2,2.2a1.74,1.74,0,0,0,1.37-.72Z"/><path class="cls-5" d="M319.91,140.19a1.07,1.07,0,0,0-1.08-.72,1.63,1.63,0,0,0-1.62,1.26c-0.36,1.58-2.38,2.84-4.54,2.84H296.77c-2.16,0-3.64-1.3-3.31-2.88l2.45-11.52c0.32-1.58,2.38-2.88,4.54-2.88h15.91c2.16,0,3.64,1.3,3.31,2.88l-0.72,3.42c-0.36,1.58-2.38,2.88-4.54,2.88h-9.75L303.89,139a1.51,1.51,0,0,0,1.37,2.05,2.5,2.5,0,0,0,2.23-2c0.32-1.58,2.3-2,4.46-2h3.31c2.23,0,4,.32,4.86,2Zm-12.06-11.37a2.5,2.5,0,0,0-2.23,2.05l-0.5,2.45h3.6l0.5-2.45A1.51,1.51,0,0,0,307.85,128.82Z"/><path class="cls-5" d="M346.08,140.73a8.64,8.64,0,0,1-6,2.84h-8.35a4,4,0,0,1-2.38-.68l-1.15,5.44a1.42,1.42,0,0,1-1.33,1.08h-7.92a0.83,0.83,0,0,1-.83-1.08l4.46-20.95a1.34,1.34,0,0,1,1.3-1.08h7.92l0.65,0.83a5.76,5.76,0,0,1,3-.83h7.23c2.16,0,3.64,1.3,3.31,2.88l-2.05,9.72a1.1,1.1,0,0,0,1.08,1.4,1.74,1.74,0,0,0,1.37-.72Zm-12-11.91a2.5,2.5,0,0,0-2.23,2.05L330.17,139a1.51,1.51,0,0,0,1.37,2.05,2.5,2.5,0,0,0,2.23-2.05l1.73-8.14A1.51,1.51,0,0,0,334.13,128.82Z"/><path class="cls-5" d="M372.43,140.73a9,9,0,0,1-6,2.84h-3.35a3.71,3.71,0,0,1-3-1.22c-0.4.29-.79,0.58-1,0.68a5.89,5.89,0,0,1-2.52.58H349.4c-2.16,0-3.64-1.26-3.31-2.88l2.45-11.52c0.32-1.58,2.38-2.88,4.54-2.88h7.24a3.87,3.87,0,0,1,2.59.86l1-.86h7.92a0.86,0.86,0,0,1,.86,1.08l-2.45,11.52a1.07,1.07,0,0,0,1.08,1.37,1.74,1.74,0,0,0,1.37-.72Zm-12-11.88a2.54,2.54,0,0,0-2.23,2.05l-1.73,8.17a1.5,1.5,0,0,0,1.37,2,2.39,2.39,0,0,0,2.2-1.94l1.76-8.24A1.52,1.52,0,0,0,360.48,128.85Z"/><path class="cls-5" d="M385.11,140.73a9,9,0,0,1-6,2.84h-3.35c-2.16,0-3.64-1.3-3.31-2.88l2.84-13.32a1.34,1.34,0,0,1,1.3-1.08h7.92a0.85,0.85,0,0,1,.86,1.08l-2.45,11.52a1.1,1.1,0,0,0,1.08,1.4,1.74,1.74,0,0,0,1.37-.72ZM386,124.17a1.46,1.46,0,0,1-1.33,1.08h-7.92a0.84,0.84,0,0,1-.83-1.08l0.22-1.08a1.41,1.41,0,0,1,1.3-1.08h7.92a0.84,0.84,0,0,1,.86,1.08Z"/><path class="cls-5" d="M412,130.87a8.83,8.83,0,0,1-6,2.88h-1.73c-2.16,0-3.64-1.3-3.31-2.88a1.51,1.51,0,0,0-1.37-2.05,2.5,2.5,0,0,0-2.23,2.05l-2.48,11.63a1.34,1.34,0,0,1-1.3,1.08h-7.92a0.85,0.85,0,0,1-.86-1.08L388,127.38a1.34,1.34,0,0,1,1.3-1.08h7.92l0.65,0.83a5.76,5.76,0,0,1,3-.83h5.65c2.16,0,3.63,1.3,3.31,2.88a1,1,0,0,0,1.12,1.26,1.8,1.8,0,0,0,1.33-.68Z"/><path class="cls-5" d="M437.41,130.87a5.47,5.47,0,0,1-4.54,1.55h-4.39c-2.16,0-2.74-.32-3-1.58-0.22-1.08-.61-1.84-1.69-1.84a2.27,2.27,0,0,0-2.2,1.84c-0.25,1.19-.22,2.41,1.15,2.66l7.2,1.33c2.77,0.5,3.85,1.33,3.28,4l-0.4,1.87c-0.4,1.94-2.88,2.88-4.54,2.88H413.08c-1.66,0-3.71-.94-3.31-2.88l0.47-2.16a1.35,1.35,0,0,1,1.3-1.08h7.56c1,0,.9.83,0.76,1.55a1.41,1.41,0,0,0,1.4,1.87,2.3,2.3,0,0,0,2.2-1.87c0.25-1.22.25-2.38-1.15-2.63L415.1,135c-2.77-.5-3.82-1.44-3.28-4l0.4-1.87c0.43-1.94,2.88-2.88,4.54-2.88h15.12c1.66,0,3.71.94,3.31,2.88a1,1,0,0,0,1.12,1.26,1.94,1.94,0,0,0,1.37-.68Z"/></svg>