<svg id="ics-text" xmlns="http://www.w3.org/2000/svg" viewBox="0 0 300 60"><defs><style>.cls-1{fill:#f4941a;}.cls-2{fill:#fff;}.cls-3{fill:#ff9600;}</style></defs><title>logo-text</title><path class="cls-1" d="M7.51,37.4a1.11,1.11,0,0,1-.82,1.07H2.8a0.82,0.82,0,0,1-.54-1.07l2-14.82a1.09,1.09,0,0,1,.82-1H9a0.8,0.8,0,0,1,.54,1Z"/><path class="cls-2" d="M22.86,37.42a1.11,1.11,0,0,1-.82,1H18.72a0.66,0.66,0,0,1-.56-0.23,1.39,1.39,0,0,1-.27-0.57L15.8,29.8l-1.05,7.62a1.09,1.09,0,0,1-.8,1H9.78a0.8,0.8,0,0,1-.51-1l2-14.85a1.09,1.09,0,0,1,.8-1h3.43a0.76,0.76,0,0,1,.74.73l2.07,8.13,1.07-7.82a1.09,1.09,0,0,1,.8-1h4.17a0.79,0.79,0,0,1,.51,1Z"/><path class="cls-2" d="M38.94,26.1a1.11,1.11,0,0,1-.82,1.07h-3.9a0.82,0.82,0,0,1-.54-1.07l0-.11c0.14-1.1-.24-2-0.87-2s-1.25.9-1.4,2l-1.09,8c-0.16,1.1.22,2,.85,2s1.25-.88,1.41-2L33,31H31.87l0.29-2.12h5.71A0.82,0.82,0,0,1,38.41,30l-1,7.39a1.11,1.11,0,0,1-.82,1.07H26.94a2.29,2.29,0,0,1-2.08-2.82L26.4,24.35a3.16,3.16,0,0,1,2.84-2.82h7.86a2.27,2.27,0,0,1,2.07,2.82Z"/><path class="cls-2" d="M52.24,24a1.1,1.1,0,0,1-.8,1.07H46.35L45.88,28.5h3.35a0.81,0.81,0,0,1,.51,1.07l-0.13.9a1.09,1.09,0,0,1-.8,1H45.47L45,34.94h5.09A0.83,0.83,0,0,1,50.61,36l-0.2,1.41a1.09,1.09,0,0,1-.8,1H39.67a0.8,0.8,0,0,1-.51-1l2-14.85a1.09,1.09,0,0,1,.8-1h9.93a0.81,0.81,0,0,1,.53,1Z"/><path class="cls-2" d="M65.76,37.42a1.11,1.11,0,0,1-.82,1H61.61a0.66,0.66,0,0,1-.56-0.23,1.39,1.39,0,0,1-.27-0.57L58.7,29.8l-1.05,7.62a1.09,1.09,0,0,1-.8,1H52.68a0.8,0.8,0,0,1-.51-1l2-14.85a1.09,1.09,0,0,1,.8-1h3.43a0.76,0.76,0,0,1,.74.73l2.07,8.13,1.07-7.82a1.09,1.09,0,0,1,.8-1h4.17a0.79,0.79,0,0,1,.51,1Z"/><path class="cls-2" d="M72.78,37.4A1.11,1.11,0,0,1,72,38.47h-3.9a0.82,0.82,0,0,1-.54-1.07l2-14.82a1.09,1.09,0,0,1,.82-1h3.9a0.8,0.8,0,0,1,.54,1Z"/><path class="cls-2" d="M87.55,35.65a3.14,3.14,0,0,1-2.84,2.82H76.86a2.29,2.29,0,0,1-2.08-2.82l1.54-11.29a3.16,3.16,0,0,1,2.84-2.82H87a2.27,2.27,0,0,1,2.07,2.82ZM82.75,24c-0.62,0-1.25.9-1.4,2l-1.09,8c-0.16,1.1.22,2,.85,2s1.25-.88,1.41-2l1.09-8C83.76,24.89,83.38,24,82.75,24Z"/><path class="cls-2" d="M102.08,35.65a3.14,3.14,0,0,1-2.85,2.82H91.39a2.29,2.29,0,0,1-2.08-2.82L91.1,22.58a1.09,1.09,0,0,1,.82-1h3.9a0.8,0.8,0,0,1,.54,1L94.8,34c-0.16,1.1.22,2,.85,2s1.25-.88,1.41-2l1.56-11.43a1.09,1.09,0,0,1,.82-1h3.9a0.8,0.8,0,0,1,.54,1Z"/><path class="cls-2" d="M118.3,26.47a1.09,1.09,0,0,1-.8,1h-4.19c-0.6,0-.56-0.79-0.45-1.52,0.13-1-.16-2-0.83-2s-1.23,1-1.36,2c-0.2,1.5,0,2.6.92,2.82l3.33,0.76c1.6,0.37,2.79,1.1,2.37,4.18l-0.25,1.89a3.1,3.1,0,0,1-2.77,2.82h-8.44c-1,0-2.25-1-2-2.82l0.29-2.12a1.09,1.09,0,0,1,.8-1h4.2c0.58,0,.54.79,0.44,1.52-0.13,1,.16,2,0.83,2s1.23-1,1.36-2a3.25,3.25,0,0,0-.13-1.83,1.58,1.58,0,0,0-.8-1l-3.33-.76c-1.47-.34-2.75-1.38-2.37-4.18l0.25-1.89a3.1,3.1,0,0,1,2.77-2.82h8.44c1,0,2.25,1,2,2.82Z"/><path class="cls-3" d="M137.64,27.88a1.09,1.09,0,0,1-.83,1h-3.9a0.79,0.79,0,0,1-.53-1L132.64,26c0.14-1.1-.24-2-0.87-2s-1.25.9-1.4,2l-1.09,8c-0.16,1.1.22,2,.85,2s1.25-.88,1.41-2l0.25-1.89a1.11,1.11,0,0,1,.82-1.07h3.9a0.82,0.82,0,0,1,.54,1.07l-0.49,3.53a3.14,3.14,0,0,1-2.84,2.82h-7.85a2.29,2.29,0,0,1-2.08-2.82l1.54-11.29a3.16,3.16,0,0,1,2.84-2.82H136a2.27,2.27,0,0,1,2.07,2.82Z"/><path class="cls-2" d="M154,36.21c-0.8,1.3-1.92,2.26-3,2.26h-2.45c-1.09,0-1.67-.87-1.67-2.26V35.08h-2.68l-0.65,2.34a1.37,1.37,0,0,1-1,1h-4.37c-0.31,0-.43-0.39-0.38-0.87a1.84,1.84,0,0,1,.11-0.42l5.07-14.59a1.47,1.47,0,0,1,1-1h6.81a1,1,0,0,1,.72,1l0.91,12.22a1.17,1.17,0,0,0,1.05,1.1,0.86,0.86,0,0,0,.67-0.57ZM146.76,25.4l-2,7.17h2Z"/><path class="cls-2" d="M169.08,36.21c-0.82,1.3-1.92,2.26-3,2.26h-2.45c-1.09,0-1.27-.9-1.25-2.31,0-2.09-.38-5.11-1.29-5.11l0.29-2.12h0.74a0.91,0.91,0,0,0,1.05-.82l0.43-3.3a0.72,0.72,0,0,0-.72-0.82h-1.49l-1.83,13.44a1.12,1.12,0,0,1-.8,1h-4.1a0.82,0.82,0,0,1-.51-1l2-14.85a1.12,1.12,0,0,1,.8-1h9.95c1.32,0,2.23,1.21,2,3.08L168.41,28c-0.25,1.86-1.49,3.1-2.81,3.08h-0.24a2.22,2.22,0,0,1,1.43,1.1,7.09,7.09,0,0,1,.71,2c0.2,0.79.31,1.72,1,1.72a0.85,0.85,0,0,0,.69-0.57Z"/><path class="cls-1" d="M190.46,26.47a1.09,1.09,0,0,1-.8,1h-4.19c-0.6,0-.56-0.79-0.45-1.52,0.13-1-.16-2-0.83-2s-1.23,1-1.36,2c-0.2,1.5,0,2.6.92,2.82l3.33,0.76c1.6,0.37,2.79,1.1,2.37,4.18l-0.25,1.89a3.1,3.1,0,0,1-2.77,2.82H178c-1,0-2.25-1-2-2.82l0.29-2.12a1.09,1.09,0,0,1,.8-1h4.2c0.58,0,.54.79,0.44,1.52-0.13,1,.16,2,0.83,2s1.23-1,1.36-2a3.25,3.25,0,0,0-.13-1.83,1.58,1.58,0,0,0-.8-1l-3.33-.76c-1.47-.34-2.75-1.38-2.37-4.18l0.25-1.89a3.1,3.1,0,0,1,2.77-2.82h8.44c1,0,2.25,1,2,2.82Z"/><path class="cls-2" d="M203.75,35.65a3.14,3.14,0,0,1-2.85,2.82h-7.85A2.29,2.29,0,0,1,191,35.65l1.54-11.29a3.16,3.16,0,0,1,2.85-2.82h7.86a2.27,2.27,0,0,1,2.07,2.82ZM198.95,24c-0.62,0-1.25.9-1.4,2l-1.09,8c-0.16,1.1.22,2,.85,2s1.25-.88,1.41-2l1.09-8C200,24.89,199.58,24,198.95,24Z"/><path class="cls-2" d="M216,37.4a1.11,1.11,0,0,1-.82,1.07h-9.33a0.82,0.82,0,0,1-.54-1.07l2-14.82a1.09,1.09,0,0,1,.82-1H212a0.8,0.8,0,0,1,.54,1l-1.69,12.36h4.75a0.81,0.81,0,0,1,.54,1Z"/><path class="cls-2" d="M230.35,35.65a3.14,3.14,0,0,1-2.85,2.82h-7.85a2.29,2.29,0,0,1-2.08-2.82l1.79-13.07a1.09,1.09,0,0,1,.82-1h3.9a0.8,0.8,0,0,1,.54,1L223.07,34c-0.16,1.1.22,2,.85,2s1.25-.88,1.41-2l1.56-11.43a1.09,1.09,0,0,1,.82-1h3.9a0.8,0.8,0,0,1,.54,1Z"/><path class="cls-2" d="M246.28,24a1.11,1.11,0,0,1-.83,1.07h-3L240.72,37.4a1.13,1.13,0,0,1-.83,1.07h-4a0.82,0.82,0,0,1-.54-1.07L237,25.06h-3.17a0.83,0.83,0,0,1-.53-1.07l0.2-1.41a1.09,1.09,0,0,1,.82-1h11.6a0.81,0.81,0,0,1,.54,1Z"/><path class="cls-2" d="M251.09,37.4a1.11,1.11,0,0,1-.82,1.07h-3.9a0.82,0.82,0,0,1-.54-1.07l2-14.82a1.09,1.09,0,0,1,.82-1h3.9a0.8,0.8,0,0,1,.54,1Z"/><path class="cls-2" d="M265.86,35.65A3.14,3.14,0,0,1,263,38.47h-7.85a2.29,2.29,0,0,1-2.08-2.82l1.54-11.29a3.16,3.16,0,0,1,2.84-2.82h7.86a2.27,2.27,0,0,1,2.07,2.82ZM261.06,24c-0.62,0-1.25.9-1.4,2l-1.09,8c-0.16,1.1.22,2,.85,2s1.25-.88,1.41-2l1.09-8C262.07,24.89,261.69,24,261.06,24Z"/><path class="cls-2" d="M281,37.42a1.11,1.11,0,0,1-.82,1h-3.33a0.65,0.65,0,0,1-.56-0.23,1.37,1.37,0,0,1-.27-0.56l-2.08-7.88-1.05,7.62a1.09,1.09,0,0,1-.8,1h-4.17a0.8,0.8,0,0,1-.51-1l2-14.85a1.09,1.09,0,0,1,.8-1h3.43a0.76,0.76,0,0,1,.74.73l2.07,8.13,1.07-7.82a1.09,1.09,0,0,1,.8-1h4.17a0.79,0.79,0,0,1,.51,1Z"/><path class="cls-2" d="M297.43,26.47a1.09,1.09,0,0,1-.8,1h-4.19c-0.6,0-.56-0.79-0.45-1.52,0.13-1-.16-2-0.83-2s-1.23,1-1.36,2c-0.2,1.5,0,2.6.92,2.82l3.33,0.76c1.6,0.37,2.79,1.1,2.37,4.18l-0.25,1.89a3.1,3.1,0,0,1-2.77,2.82H285c-1,0-2.25-1-2-2.82l0.29-2.12a1.09,1.09,0,0,1,.8-1h4.2c0.58,0,.54.79,0.44,1.52-0.13,1,.16,2,0.83,2s1.23-1,1.36-2a3.25,3.25,0,0,0-.13-1.83,1.58,1.58,0,0,0-.8-1l-3.33-.76c-1.47-.34-2.75-1.38-2.37-4.18l0.25-1.89a3.1,3.1,0,0,1,2.77-2.82h8.44c1,0,2.25,1,2,2.82Z"/></svg>